<?xml version="1.0" encoding="UTF-8"?>
<!DOCTYPE svg PUBLIC "-//W3C//DTD SVG 1.1//EN" "http://www.w3.org/Graphics/SVG/1.1/DTD/svg11.dtd">
<!-- Creator: CorelDRAW X8 -->
<svg xmlns="http://www.w3.org/2000/svg" xml:space="preserve" width="297mm" height="210mm" version="1.1" style="shape-rendering:geometricPrecision; text-rendering:geometricPrecision; image-rendering:optimizeQuality; fill-rule:evenodd; clip-rule:evenodd"
viewBox="0 0 29700 21000"
 xmlns:xlink="http://www.w3.org/1999/xlink">
 <defs>
  <style type="text/css">
   <![CDATA[
    .fil1 {fill:none}
    .fil10 {fill:#DCD2C7}
    .fil11 {fill:#DCD3CB}
    .fil8 {fill:#F1CECD}
    .fil4 {fill:#F5CECD}
    .fil9 {fill:#F5DEDC}
    .fil2 {fill:#FADAD9}
    .fil3 {fill:#FDDCDB}
    .fil6 {fill:#FEDCDC}
    .fil5 {fill:#FEDEDD}
    .fil7 {fill:#FFCCCC}
    .fil15 {fill:#FF5957;fill-rule:nonzero}
    .fil23 {fill:#FF5C5A;fill-rule:nonzero}
    .fil20 {fill:#FF6866;fill-rule:nonzero}
    .fil19 {fill:#FF7270;fill-rule:nonzero}
    .fil24 {fill:#FF8483;fill-rule:nonzero}
    .fil22 {fill:#FF8988;fill-rule:nonzero}
    .fil17 {fill:#FF9A99;fill-rule:nonzero}
    .fil21 {fill:#FFA2A1;fill-rule:nonzero}
    .fil16 {fill:#FFB9B8;fill-rule:nonzero}
    .fil18 {fill:#FFCFCE;fill-rule:nonzero}
    .fil25 {fill:#FFD2D2;fill-rule:nonzero}
    .fil26 {fill:#23282A;fill-rule:nonzero;fill-opacity:0.050980}
    .fil27 {fill:#AD3537;fill-rule:nonzero;fill-opacity:0.400000}
    .fil13 {fill:url(#id0)}
    .fil0 {fill:url(#id1)}
    .fil14 {fill:url(#id2)}
    .fil12 {fill:url(#id3)}
   ]]>
  </style>
  <linearGradient id="id0" gradientUnits="userSpaceOnUse" x1="1079.82" y1="9686.48" x2="6194.4" y2="9686.48">
   <stop offset="0" style="stop-opacity:1; stop-color:#CC4947"/>
   <stop offset="1" style="stop-opacity:1; stop-color:#D03438"/>
  </linearGradient>
  <linearGradient id="id1" gradientUnits="userSpaceOnUse" x1="23761.7" y1="17572" x2="6249.98" y2="17898.6">
   <stop offset="0" style="stop-opacity:1; stop-color:#F4F5F6"/>
   <stop offset="0.0588235" style="stop-opacity:1; stop-color:#EAACA0"/>
   <stop offset="0.109804" style="stop-opacity:1; stop-color:#E3B4AC"/>
   <stop offset="0.419608" style="stop-opacity:1; stop-color:#F27359"/>
   <stop offset="1" style="stop-opacity:1; stop-color:#DF6249"/>
  </linearGradient>
  <linearGradient id="id2" gradientUnits="userSpaceOnUse" x1="8024.12" y1="10157.8" x2="24157.5" y2="19582.4">
   <stop offset="0" style="stop-opacity:1; stop-color:#F4F4F4"/>
   <stop offset="0.00392157" style="stop-opacity:1; stop-color:#EDEAEA"/>
   <stop offset="0.0117647" style="stop-opacity:1; stop-color:#A31C1A"/>
   <stop offset="0.54902" style="stop-opacity:1; stop-color:#FF8C8B"/>
   <stop offset="1" style="stop-opacity:1; stop-color:#E6DFDF"/>
  </linearGradient>
  <linearGradient id="id3" gradientUnits="userSpaceOnUse" x1="7570.18" y1="8573.9" x2="23226.7" y2="7330.66">
   <stop offset="0" style="stop-opacity:1; stop-color:#A31C1A"/>
   <stop offset="0.521569" style="stop-opacity:1; stop-color:#C82728"/>
   <stop offset="0.6" style="stop-opacity:1; stop-color:#FA494C"/>
   <stop offset="1" style="stop-opacity:1; stop-color:#ED3237"/>
  </linearGradient>
 </defs>
 <g id="Camada_x0020_1">
  <metadata id="CorelCorpID_0Corel-Layer"/>
  <g id="_1757238231840">
   <path class="fil0" d="M23743 16695c91,1186 -1284,2760 -3077,3168l-1189 270c-881,200 -1864,119 -2823,-430 -1600,-915 -8796,-4447 -10446,-4077l1188 -270c1651,-370 8847,3162 10447,4077 746,427 1508,571 2224,519 1495,-577 2568,-1935 2487,-2987l1189 -270z"/>
  </g>
  <path class="fil1" d="M23149 16830c136,1770 -2991,4402 -5901,2738 -1599,-915 -8796,-4447 -10446,-4077"/>
  <path class="fil2" d="M27393 17461c-26,-17 -56,-16 -55,18 1,40 36,21 54,17l2 392 -668 3 1 801 241 0c39,0 55,11 89,8 104,-10 231,-21 338,-4l1 665 74 1c72,112 65,29 110,0l617 2c3,-32 2,-63 2,-94 -1,-59 -4,-39 17,-81 -27,-36 -17,-61 -17,-111l4 -320c-3,-24 -4,-35 -3,-62l671 1c2,-99 -13,-349 7,-423l-6 -191c0,-42 16,-61 8,-89 -11,-43 -8,-60 -8,-107l-668 0 -3 -423c41,-24 67,-31 67,-88 0,-53 -31,-64 -66,-89l-1 -67 -808 -1 0 242z"/>
  <path class="fil2" d="M28239 15735c-13,-9 -29,-8 -28,9 0,20 18,11 27,9l1 201 -343 2 0 412 125 -1c20,1 28,6 45,4 54,-4 119,-10 174,-2l0 342 38 1c37,57 34,15 57,0l317 1c2,-16 2,-32 1,-48 0,-31 -2,-20 9,-42 -14,-19 -8,-32 -8,-57l2 -164c-2,-13 -2,-18 -2,-32l345 0c1,-51 -7,-179 4,-218l-4 -98c0,-21 8,-31 5,-45 -6,-22 -4,-31 -4,-55l-344 0 -1 -218c20,-12 34,-16 34,-45 0,-27 -16,-33 -34,-46l-1 -34 -415 -1 0 125z"/>
  <path class="fil3" d="M24935 14396l59 0c2,32 4,221 -2,238l-60 1c7,17 3,54 3,74l320 -1 2 321 384 0c0,-53 1,-107 1,-160 -1,-22 5,-60 3,-77 -3,-31 -4,-52 -4,-83 63,-6 42,3 54,11 15,-10 -8,-8 18,-12l247 -1c5,-19 1,-50 2,-71 1,-16 5,-21 5,-39 0,-18 -4,-21 -4,-38 0,-36 -8,-130 7,-145 -4,-9 -12,-15 -4,-26 5,-7 14,-3 16,-18 2,-12 -5,-14 -11,-19 -15,-13 -7,-5 -10,-27l-171 0c-6,-9 -8,-21 -18,-26 -15,-10 -20,0 -36,1l-1 24 -93 1c-1,-23 -3,-196 1,-213 9,-38 -4,-25 0,-57 53,14 56,-43 11,-44 -23,0 9,-7 -54,-7 -23,0 -45,0 -68,0 -89,-1 -179,-1 -268,-1 -22,7 9,5 -23,18 -11,5 -17,9 -21,22 -8,32 19,35 35,43 8,128 -9,94 -18,119 -10,28 16,28 19,47 2,14 0,55 0,71l-321 0 0 74z"/>
  <path class="fil4" d="M23687 14615l-202 1c0,155 5,68 -18,100 6,18 12,7 19,8 1,39 -6,54 -6,60 0,10 6,10 5,62l-69 0c-17,-5 1,-12 -18,-13 -20,0 -1,8 -17,13l-125 0 0 281 229 0 0 229 280 0 4 -77c2,8 -7,9 6,18 13,-4 17,-4 8,-17 -20,-30 -16,15 -17,-72 -1,-42 6,-17 12,-43 -5,-26 -12,1 -12,-39l229 1 1 -280 -49 -1 -2 -20 -12 -6c-5,-5 1,-11 -18,-8 -18,3 -20,18 -20,33 -80,1 -54,7 -61,-13 -1,-1 -25,-2 -26,-2 -31,4 9,16 -42,16l0 -225c-12,-9 -6,0 -15,-10 -30,-31 -29,1 -45,5 -8,-14 -2,-22 -25,-18l6 17z"/>
  <path class="fil2" d="M23267 13682c-42,4 -222,-6 -238,-1 -9,21 -5,253 -4,293l241 -1 1 65c-25,20 -22,20 -1,39l1 138 131 0c45,48 41,9 67,-1l92 0 0 -157c42,13 43,-33 1,-21l-1 -63 241 -1 0 -229c4,-29 13,-25 -3,-59l-237 0 -2 -241 -288 -1 -1 240z"/>
  <path class="fil5" d="M27151 14149l-247 0 0 295 32 2c9,12 -2,8 12,15 17,-6 4,-5 12,-16l177 0c13,59 14,-6 14,117 0,42 -2,88 0,129 78,8 256,-8 299,7 14,4 27,1 27,-15 1,-18 -20,-18 -31,-22l0 -127c14,-6 9,1 15,-8 -7,-7 -2,-1 -15,-9l4 -67c20,-8 215,-11 235,-2 9,15 -2,18 -10,26 14,22 14,13 34,12 27,-2 25,17 34,-5 -14,-15 -13,1 -26,-17 -14,-18 -1,-7 -22,-21 -4,-67 -1,-223 -1,-294 -47,0 -214,6 -247,-2l1 -216c11,-8 3,5 17,-6 1,-17 -28,-25 -49,-24 -73,1 -212,-3 -265,2l0 246z"/>
  <path class="fil6" d="M22182 16022c-71,0 -142,-1 -213,0l0 275 228 0c12,50 -6,170 3,229l274 1 0 -229 230 0 0 -276 -230 0 0 -229 -275 -1 0 185c0,22 -4,31 -17,45z"/>
  <path class="fil7" d="M24559 15902l-196 0 -1 236 178 0c35,7 14,126 20,196 25,3 60,1 86,1 50,0 57,-7 78,10 19,-17 16,-9 70,-10l1 -196 196 -1 1 -180c14,2 16,5 26,-7 -2,-20 -11,-16 -26,-12l-1 -36 -103 -1c-1,-17 1,-33 -20,-34 -22,-1 -22,17 -23,32l-50 1 0 -195 -236 0 0 196z"/>
  <path class="fil8" d="M26125 15657c-72,2 -149,3 -221,1 -44,0 -61,-13 -100,-8 -43,7 -61,8 -105,10 -5,89 -1,184 -1,274 0,66 -3,66 -14,125 -3,16 17,86 20,116l330 3c64,-3 42,-12 90,17l3 410 519 2 1 -427 44 -1c9,68 28,87 99,73 -7,-47 -20,-5 -13,-58 42,-27 235,-13 299,-15 1,-171 26,-53 24,-124 -1,-51 -21,-1 -24,-53 -3,-49 16,-11 16,-59 0,-54 -17,22 -16,-129 0,-51 3,-102 -6,-153 -159,-32 -36,-17 -188,-6 -69,5 -165,4 -235,1l0 -219c27,-14 60,-21 47,-67 -17,-59 -48,2 -46,-78 22,31 60,22 65,-12 6,-39 -36,-53 -67,-21 3,-26 7,-19 -20,-31l-500 0 -1 429z"/>
  <path class="fil3" d="M21510 14733l-176 0c-3,21 2,36 -23,43 -17,-5 -13,-18 -29,-23 -26,-7 -44,32 -10,40 20,4 5,-7 19,9 15,17 23,14 42,5l1 137 171 1c12,24 5,123 5,157 -10,-6 -30,-22 -34,1 -4,19 14,26 30,8 16,19 9,0 25,15 7,7 8,18 16,24 38,12 31,-19 47,-30l126 0 1 -176c40,0 23,1 39,13 15,-5 12,-9 22,-12 11,-3 87,1 114,-2l0 -208 -175 -1c0,-32 4,-157 -2,-177l-208 0 -1 176z"/>
  <path class="fil9" d="M20268 15395l1 21 -160 0 0 195 161 1 1 159 192 -1 0 -159c47,-1 23,1 36,23 5,9 14,12 24,13 31,2 29,-14 35,-36l60 -1c12,-16 -7,-8 14,-20 -10,-22 -10,5 -10,-43l0 -128c-26,0 -76,2 -97,-3 -17,-4 -36,3 -61,2l0 -161 -196 0 0 138z"/>
  <path class="fil7" d="M24989 17166l-40 1c0,25 -2,52 -1,75 2,24 2,59 1,84l-159 1c-2,31 2,63 -2,94 -4,33 2,64 2,97l158 0 1 119c-6,18 -13,7 -12,20 0,8 8,11 15,20l186 0c8,-26 -1,-122 3,-158l159 -1 0 -191c-32,0 -63,0 -94,0 -37,0 -15,-4 -34,-13 -20,-10 -14,6 -31,11l-1 -158 -114 0c-12,-15 -22,-41 -37,-1z"/>
  <path class="fil10" d="M27068 14148l-32 0c-20,16 -34,20 -30,53 6,51 83,53 91,3 6,-34 -9,-39 -29,-56z"/>
  <path class="fil11" d="M4998 9419l-32 0c-19,13 -34,21 -32,49 3,54 81,59 92,6 6,-32 -13,-38 -28,-55z"/>
  <g id="_1757238295456">
   <path class="fil12" d="M8594 15220c-72,0 -1202,-1277 -164,-2494l564 -661c302,-355 790,-705 1541,-1016 2739,-1134 6298,-1121 8177,-2884 61,-91 119,-186 173,-284 324,-590 468,-1705 373,-2776 -1642,-428 -3290,-1078 -3333,-2157 -21,-526 63,-845 212,-1019l564 -662c469,-549 1582,340 2078,674 620,420 949,1440 1043,2503 1459,381 2914,587 3236,766l-564 662c-278,-155 -1402,-330 -2644,-621 -17,791 -158,1527 -401,1969 -126,230 -272,439 -435,630l-564 661c-1777,2084 -5585,2001 -8479,3200 -524,217 -920,453 -1214,696 -598,1102 336,2152 401,2151l-564 662zm10532 -10973c-165,-722 -462,-1341 -911,-1644 -390,-264 -1164,-871 -1704,-849 -22,148 -30,324 -22,533 37,925 1255,1535 2637,1960z"/>
  </g>
  <path class="fil1" d="M8876 14889c-93,1 -1951,-2131 1377,-3509 3159,-1308 7408,-1090 8914,-3830 647,-1176 576,-4436 -670,-5278 -653,-441 -2377,-1843 -2290,345 81,2038 5884,2543 6569,2924"/>
  <g id="_1757238296256">
   <path class="fil13" d="M6037 14340l-500 617c-59,73 -134,116 -220,119l353 -436c98,-506 -90,-1352 -748,-1977 -1911,-1814 -5332,-3630 -3126,-6352l500 -617c136,-168 293,-339 473,-513 660,-640 831,-461 1202,-884l-500 618c-371,422 -542,243 -1202,883 -70,67 -136,134 -198,200 -1724,2555 1512,4303 3351,6048 830,788 913,1927 615,2294z"/>
  </g>
  <path class="fil1" d="M5567 14767c521,-17 601,-1467 -395,-2412 -2028,-1926 -5759,-3854 -2653,-6866 660,-640 831,-461 1202,-883"/>
  <g id="_1757238296384">
   <path class="fil14" d="M25385 14288c214,-566 -604,-2048 -1821,-2463 -899,109 -1908,874 -2848,2864 -414,876 -919,1161 -1423,1105l-873 -95c-717,-78 -1431,-842 -1878,-1565 -671,-1085 -1605,-1788 -2616,-2032 -1228,25 -2492,718 -3487,2204 -561,838 -730,2055 -2311,2474 -1052,278 -1029,179 -1894,324l-873 -96c864,-145 841,-45 1893,-324 1581,-418 1750,-1635 2311,-2473 1114,-1664 2565,-2334 3926,-2185l873 95c1176,129 2285,869 3051,2108 353,571 872,1166 1427,1431 358,-112 703,-436 1001,-1066 1095,-2321 2286,-2976 3285,-2867l873 95c1451,159 2496,1930 2257,2562l-873 -96z"/>
  </g>
  <path class="fil1" d="M25821 14336c404,-1066 -2855,-5384 -5542,306 -1001,2121 -2539,771 -3300,-460 -1653,-2673 -4900,-3026 -6977,77 -561,837 -730,2054 -2311,2473 -1052,279 -1029,179 -1894,324"/>
  <g id="_1757238283040">
   <g>
    <g>
     <path class="fil15" d="M9705 15827c-125,-875 -530,-1432 -966,-2131 -436,-699 -1276,-1910 -1425,-2789 -263,1020 -989,2090 -1424,2789 -436,699 -796,1256 -921,2131 -124,876 305,1685 908,2106 373,260 837,455 1437,457 601,-2 1110,-197 1483,-457 603,-421 1032,-1230 908,-2106z"/>
    </g>
    <g>
     <path class="fil16" d="M8092 12666l-275 514 -203 -1397c138,295 306,596 478,883z"/>
     <path class="fil17" d="M7614 11783l203 1397 -1362 -392c345,-577 694,-1239 859,-1881 46,269 156,569 300,876z"/>
     <path class="fil18" d="M8377 13126l-560 54 275 -514c96,159 192,314 285,460z"/>
     <path class="fil19" d="M8959 14045l-1142 -865 560 -54c133,211 259,405 362,570 75,120 148,236 220,349z"/>
     <path class="fil20" d="M7817 13180l1142 865c46,73 91,145 135,217l-372 1642 -905 -2724z"/>
     <path class="fil21" d="M9663 15593l-941 311 372 -1642c250,411 460,817 569,1331z"/>
     <path class="fil22" d="M6455 12788l1362 392 -170 1312 -1239 -1626c16,-26 32,-52 47,-78z"/>
     <polygon class="fil23" points="7817,13180 8722,15904 7647,14492 7647,14492 "/>
     <path class="fil20" d="M9621 16802l-899 -898 941 -311c16,76 30,154 42,234 48,342 13,673 -84,975z"/>
     <path class="fil20" d="M6408 12866l1239 1626 0 0 -581 289 -687 -1867c10,-16 20,-32 29,-48z"/>
     <path class="fil21" d="M6379 12914l687 1867 -709 576 -20 -1366 -15 -984c19,-31 38,-62 57,-93z"/>
     <path class="fil18" d="M6322 13007l15 984 -24 1 -557 -81c43,-70 88,-142 134,-215 126,-202 276,-435 432,-689z"/>
     <polygon class="fil24" points="7647,14492 8722,15904 7066,14781 "/>
     <path class="fil19" d="M8722 15904l899 898c-20,61 -42,121 -67,180l-1302 3 470 -1081z"/>
     <polygon class="fil18" points="7066,14781 8722,15904 6357,15357 "/>
     <polygon class="fil20" points="6357,15357 8722,15904 7947,16679 "/>
     <polygon class="fil21" points="8722,15904 8252,16985 7947,16679 "/>
     <path class="fil22" d="M8472 18124l-359 -745 1413 -333c-167,367 -426,676 -729,887 -99,69 -207,133 -325,191z"/>
     <path class="fil18" d="M9526 17046l-1413 333 139 -394 1302 -3c-9,22 -19,43 -28,64z"/>
     <path class="fil23" d="M6337 13991l20 1366 -851 -1029c78,-138 162,-275 250,-417l557 81 24 -1z"/>
     <polygon class="fil25" points="7947,16679 8252,16985 8113,17379 7198,17724 6587,17429 7145,16871 "/>
     <path class="fil19" d="M5506 14328l851 1029 -1202 -285c95,-264 215,-504 351,-744z"/>
     <polygon class="fil23" points="6357,15357 7947,16679 7145,16871 "/>
     <path class="fil20" d="M5155 15072l1202 285 -1360 463 -22 -32c40,-263 102,-498 180,-716z"/>
     <polygon class="fil17" points="6357,15357 7145,16871 6587,17429 "/>
     <polygon class="fil16" points="6357,15357 6587,17429 5037,15879 4997,15820 "/>
     <path class="fil20" d="M8113 17379l359 745c-108,53 -224,100 -346,139l-928 -539 915 -345z"/>
     <path class="fil16" d="M7198 17724l928 539c-245,79 -517,126 -812,127 -20,0 -40,-1 -60,-1l-56 -665z"/>
     <path class="fil23" d="M4975 15788l22 32 -14 5 -14 1c2,-12 4,-25 6,-38z"/>
     <path class="fil19" d="M6587 17429l611 295 -936 433c-65,-31 -128,-64 -188,-99l513 -629z"/>
     <path class="fil23" d="M7198 17724l56 665c-89,-2 -175,-9 -257,-19l201 -646z"/>
     <path class="fil17" d="M7198 17724l-201 646c-275,-34 -518,-110 -735,-213l936 -433z"/>
     <path class="fil24" d="M5037 15879l1550 1550 -1261 -64c-231,-346 -376,-770 -378,-1223l35 -317 54 54z"/>
     <path class="fil18" d="M5326 17365l1261 64 -513 629c-69,-39 -134,-81 -197,-125 -210,-147 -399,-341 -551,-568z"/>
     <path class="fil21" d="M4983 15825l-35 317c-1,-104 6,-209 21,-315l0 -1 14 -1z"/>
    </g>
   </g>
  </g>
  <path class="fil26" d="M9481 19204c0,81 -965,146 -2156,146 -1190,0 -2155,-65 -2155,-146 0,-80 965,-146 2155,-146 1191,0 2156,66 2156,146z"/>
  <path class="fil27" d="M4967 16130l0 0c0,14 0,28 1,42m2394 2205c9,0 18,0 27,0m-2206 -3340c-3,7 -6,15 -9,22m1252 -2203l0 1 -1 1 0 0 -2 3 0 0 -1 1 0 1 0 1 -1 1 -1 1 0 1 -1 0 0 1 -1 1 0 1 0 0 -1 1 0 1 -1 1 0 0 0 0 -1 1 0 1 -1 1 0 0 -1 1 0 1 0 1 -1 0 0 1 -1 1 0 1 -1 0 0 1 -1 1 0 0 -1 1 0 1 0 1 -1 0 0 1 -1 1 0 1 -1 0 0 1 -1 1 0 1 0 0 -1 1 0 1 -1 1 0 0 -1 1 0 1 -1 1 0 0 -1 1 0 1 0 1 -1 1 -1 1 -1 2 0 0 -1 1 -1 2 -1 1 -1 2 -1 1 0 2 -1 1 -1 2 -1 1 -1 2 -1 1 -1 2 -1 1 -1 1 -1 2 0 1 -1 2 -1 1 -1 2 -1 1 0 1 -1 1 -1 1 -1 2 -1 1 0 2 -1 1 -1 1 -1 2 -1 1 -1 2 -1 1 -1 2 -1 1 0 2 -1 1 -1 1 -1 2 -1 1 -1 2 -1 1 0 1 -1 1 -1 1 0 2 -1 1 -1 2 -1 1 -1 1 -1 2 -1 1 -1 2 -1 1 0 2 -1 1 -1 2 -1 1 -1 1 -1 2 -1 1 -1 2 -1 1 0 2 -44 71 -7 11 -8 12 -7 12 -7 11 -7 12 -15 23 -7 11c-14,23 -28,46 -43,68l-7 12 -7 11 -3 5 -4 6 -7 11 -7 11 -6 11 -1 0 -7 11 -7 11 -6 11 -3 5 -4 6 -7 11 -7 11 -6 9 -1 2 -7 10 -6 11 -7 11 -2 3 -5 7 -7 11 -6 11 -6 8 -1 2 -7 11 -6 10 -7 10 -1 3 -5 8 -7 10 -6 10 -5 8 -2 3 -6 10 -13 20 -1 2 -5 8 -7 10 -6 10 -4 6 -2 4 -6 10 -7 10 -6 10 0 0 -6 9 -6 10 -6 10 -3 5 -3 4 -18 29 -2 3 0 0 -2 4 0 0 -2 3 0 0 -3 4 0 0c-39,62 -77,124 -115,185l0 0 -4 6 0 0 -6 10 -4 7 0 0 -4 6 -3 4 -1 3 -4 7 -1 0 -4 6 -2 4 -2 3 -4 6 0 1 -4 6 -2 4 -2 3 -4 6 0 1 -4 6 -2 3 -2 3 -4 7 0 0 -4 6 -2 4 -2 3 -4 7 0 0 -4 6 -2 4 -2 3 -4 6 0 0 -4 7 -2 3 -2 3 -4 7 0 0 -4 6 -2 4 -2 3 -4 6 0 1 -4 6 -2 3 -2 3 -4 7 0 0 -4 6 -2 4 -2 3 -3 6 -1 0 -3 7 -2 3 -2 3 -4 7 0 0 -4 6 -2 4 -2 3 -4 6 0 0 -4 7 -2 3 -2 3 -3 7 -1 0 -3 6 -2 3 -2 3 -4 7 0 0 -4 6 -2 4 -2 3 -3 6 0 0c-8,13 -16,26 -23,39l0 0 -4 6 -2 4c-13,22 -26,45 -39,67l-5 10 -1 2c-11,18 -21,37 -32,56l-2 5 -1 0 -9 17 -2 3 -10 20 -1 1 -1 3 -10 18 -1 1 -11 20 -1 2 -10 19 -2 4 -8 16 -2 3 -7 15 -3 5 0 0 -9 18 -2 3 0 0 -10 19 -1 2 0 1 -10 20 0 0 0 0 -10 19 -1 2 -1 2 0 1 -8 16 -1 3 -2 3 -6 12 -1 2 -4 8 0 1 -6 12 -2 4 -1 3 -8 16 -1 3 -4 8 -5 12 -1 1 -5 11 -5 11 0 0 -2 4 -7 15 -1 3 -1 2 -8 17 -1 3 -1 3 -5 12 -3 6 -1 2 -7 17 -3 6 -7 16 -1 3 -1 2 -8 18 0 1 -1 1 -1 3 -6 15 -2 4 0 1 -2 5 -6 14 -1 3 0 2 -7 16 -3 7 0 1 -5 12 -1 2 -3 8 -1 2 -4 12 -1 2 -2 6 -7 17 -2 7 -7 17 0 2c-3,7 -6,15 -9,22l-3 11c-4,10 -7,20 -11,30l0 1c-4,10 -7,20 -10,30l-1 1 -3 10 -7 21 0 0 -4 11 0 1 -6 20 -4 10 0 3 -7 21 -5 17 -5 16 -6 20 -5 17 -5 18 -4 15 -5 19 -5 18 -5 20 -4 14 -5 23 -4 13c-2,9 -4,17 -6,26l-2 9c-2,9 -4,19 -7,29l-1 7c-2,10 -4,19 -6,29l-2 9c-2,10 -5,20 -7,31l-1 4c-2,12 -4,24 -7,36l0 0 0 1c-2,12 -5,25 -7,37l0 2c-2,12 -4,23 -7,35l0 5c-2,12 -4,24 -6,36l-1 2c-2,13 -4,26 -6,39l0 0 0 1 0 0c-2,12 -3,23 -5,35l0 0 0 1 0 1 0 0 0 1c-2,13 -4,27 -6,40l0 1 0 0c-2,14 -3,27 -4,40l-1 2c-1,12 -2,24 -3,37l-1 6c-1,11 -1,22 -2,33l-1 9c0,10 -1,21 -1,31l-1 11c0,9 -1,19 -1,28l0 14c-1,8 -1,16 -1,24l0 17c0,7 0,14 0,22 0,14 0,28 1,42l0 0c0,7 0,14 0,21l0 0c1,7 1,14 1,21l0 0c0,7 1,14 1,21l0 0c0,7 1,14 1,21l0 0c1,7 1,14 2,21l0 0c0,7 1,14 1,21l0 0 2 21 0 0c1,7 2,14 2,21l0 0c1,7 2,14 2,21l0 0c1,6 2,13 3,20l0 0c1,7 2,14 3,21l0 0c0,7 1,14 2,20l0 0c1,7 2,14 3,21l0 0c1,7 2,14 3,20l0 0c2,7 3,14 4,21l0 0c1,7 2,13 3,20l0 0c4,20 8,41 12,61l0 0c3,13 6,26 9,40l0 0c3,13 6,26 9,40l0 0c2,6 4,13 5,19l0 0c14,53 30,105 47,156l0 0c2,6 4,13 6,19l0 0c16,45 33,88 51,131l0 0c7,19 15,37 24,55l0 0c8,19 16,37 25,54l0 1c34,71 72,140 114,207l0 0 10 17 0 0c4,5 7,11 11,16l0 0c3,6 7,11 10,17l0 0 11 16 1 1c4,6 8,12 12,18l6 9c5,7 10,14 15,21l3 4c4,6 8,12 13,18l5 8c5,7 11,14 16,21l4 6c4,5 9,11 13,16l7 10c5,6 9,11 14,17l6 8 11 14 11 13 10 12 9 11 11 13 12 13 9 10 11 12 9 11c5,4 9,9 13,14l7 7c5,5 10,11 15,16l8 8c4,4 9,9 13,14l8 7c6,6 11,12 17,17l5 6c6,5 11,10 17,16l4 4c6,6 13,12 19,17l5 5c6,6 12,11 18,16l4 4c6,6 13,11 19,17l5 4c6,6 12,11 18,16l4 3c7,6 14,12 21,17l3 3c7,6 14,11 21,17l1 1 1 0c8,6 15,12 22,18l3 2c7,5 15,11 23,17l0 0 0 0c8,6 16,12 24,18l1 1c8,5 16,11 24,17l15 10 3 2 0 0 3 2 14 10 1 0c11,7 22,15 33,22l2 1 1 1 15 10 2 1 1 1 10 6 3 2 3 2 3 2 3 2 9 6 3 2 2 0 2 1 3 2 3 2 3 2 3 2 3 2 3 2 4 2 3 2 3 2 3 2 1 0 5 3 0 0 3 2 4 2 3 2 3 2 0 0 6 4 4 2 3 1 3 2 3 2 3 2 3 1 0 0 3 2 2 2 3 1 0 0 3 2 0 0 3 2 0 0 6 3 0 0 3 1 0 0 5 4 0 0 15 8 0 0 3 1 0 0 3 2 0 0 2 1 0 0 3 2 0 0 6 3 0 0 3 2 0 0 6 3 0 0 3 1 0 0 6 3 3 2 0 0 5 3 9 5 0 0 6 3 0 0 6 3 0 0 3 1 3 2 0 0 6 3 3 1 3 2 3 1 3 2 3 1 3 2 3 1 3 2 0 0 3 1 0 0 6 3 0 0 3 2 0 0 6 3 6 3 0 0 15 7 5 2 4 2 1 1 14 6 4 2 9 4 13 6 2 0 8 4 2 1 12 6 9 3 10 5 9 3 4 2 8 3 11 5 1 0 9 4 1 0 10 4 10 4 3 1 9 4 11 4 1 0 8 3 2 1 10 4 9 3 5 2c10,3 20,7 30,10l1 1c7,2 13,4 19,6l6 2 8 3 11 3 0 1 11 3 0 0 12 4 11 3 0 0 11 4 12 3 0 0 10 3 1 0 12 4 11 3 1 0c26,7 53,14 80,21l2 1c20,4 39,9 59,13l1 0c32,7 64,13 97,19l2 0c8,1 15,3 23,4l1 0c25,4 51,8 76,11l13 2 4 0 1 0 3 1 2 0 2 0 2 1 2 0 3 0 0 0 4 1 1 0 3 0 2 0 2 0 2 1 2 0 3 0 1 0 4 1 0 0 4 0 1 0 3 1 2 0 2 0 3 0 1 0 3 1 1 0 3 0 1 0 3 1 2 0 2 0 3 0 1 0 4 1 0 0 4 0 1 0 3 0 1 0 3 1 2 0 2 0 3 0 1 0 4 1 4 0 1 0 3 0 2 0 2 1 3 0 1 0 4 0 0 0 4 1 4 0 2 0 2 0 4 0 4 1 0 0 4 0 0 0 4 0 4 0 2 1 2 0 9 0 4 0 0 0 8 1 2 0 2 0 3 0 1 0 16 1 3 0 1 0 4 0 0 0c22,1 44,2 65,2l1 0 3 0 0 0 6 0 0 0 1 0 1 0 0 0 1 0 0 0 1 0 1 0 0 0 1 0 1 0 0 0 1 0 0 0 0 0 1 0 1 0 0 0 1 0 0 0 1 0 1 0 0 0 1 0 1 0 0 0 1 0 0 0 1 0 1 0 0 0 1 0 1 0 0 0 1 0 0 0 1 0 1 0 0 0 1 0 0 0 1 0 1 0 0 0 1 0 1 0c9,0 18,0 27,0l1 0c9,0 18,0 27,0l1 0 2 0c17,-1 34,-1 51,-2l2 0 3 0c8,-1 15,-1 23,-1l5 -1c8,0 16,0 24,-1l1 0c8,-1 16,-1 24,-2l7 0 21 -2 3 0 22 -2 8 -1 18 -2 10 0 17 -2 8 -1 20 -3 6 0 20 -3 6 -1 18 -2 10 -2 16 -2 9 -1 17 -3 9 -2 18 -3 7 -1 18 -3 8 -1 17 -4 8 -1 17 -4 8 -1 12 -3 3 0 17 -4 9 -2 14 -3 10 -2 16 -4 9 -2 15 -4 8 -2 18 -5 6 -1 17 -5 8 -2 17 -4 6 -2 18 -5 5 -2 18 -5 6 -2c14,-4 28,-9 42,-13l0 0 6 -2 3 -1 3 -1 9 -3 2 -1 11 -3 1 0 5 -2 6 -2 0 0 11 -4 2 -1 9 -3 3 -1 9 -3 3 -1 2 -1 10 -4 1 0 0 0 1 0c7,-3 14,-6 22,-8l1 -1c7,-2 14,-5 21,-8l3 -1 12 -5 1 0 11 -4 0 -1 11 -4 1 0c8,-4 16,-7 24,-10l2 -1c19,-8 38,-16 56,-24l2 -1c7,-3 14,-6 21,-9l0 -1c21,-9 41,-19 61,-29 26,-12 51,-25 76,-38l0 0c16,-9 32,-17 48,-26l0 0 5 -3 0 0 5 -3 0 0 10 -6 0 0 16 -9 0 0 5 -3 0 0 5 -3 0 0 5 -3 0 0 5 -3 0 0 5 -3 0 0 5 -3 0 0 5 -3 0 0 5 -3 5 -3 0 0 5 -3 5 -3 5 -3 5 -3 0 0 5 -3 5 -3 0 0 5 -3 0 0 4 -3 5 -4 5 -3 5 -3 5 -3 5 -3 4 -3 5 -3 5 -4 5 -3 4 -3 5 -3 5 -3 5 -4 4 -3 5 -3 5 -3 4 -3c5,-4 10,-7 14,-10 5,-4 10,-7 15,-10l14 -11 14 -10c4,-4 9,-7 13,-11l14 -10 0 0 14 -11 14 -11 0 0 13 -11c5,-4 9,-8 14,-11 4,-4 9,-8 13,-12l14 -11c4,-4 9,-8 13,-12 4,-4 9,-8 13,-12l13 -12c5,-3 9,-7 13,-12 5,-4 9,-8 13,-12l13 -12 13 -12 0 0 13 -13 0 0 13 -12c4,-5 8,-9 12,-13l0 0 13 -13 12 -13 12 -13 0 0 12 -14 13 -13 0 0 12 -13 11 -14 12 -14 0 0 12 -14 12 -14 0 0c3,-4 7,-9 11,-14l0 0c4,-4 8,-9 12,-14l11 -14 0 0c4,-5 7,-10 11,-15l11 -14 0 0c4,-5 8,-10 11,-15l11 -14 11 -15 11 -15 10 -15 11 -15 10 -16 0 0 10 -15 10 -15 10 -16 10 -16 10 -15 10 -16 9 -16c4,-6 7,-11 10,-16l9 -16 9 -17 9 -16 9 -16 9 -17 9 -17 8 -16 9 -17 8 -17 8 -17c3,-6 6,-11 8,-17l8 -17 1 -1 0 -1c4,-8 7,-16 11,-24l0 -1 1 -1 1 -4 1 -1c4,-10 9,-21 13,-31l7 -16 0 -1 0 0 0 0 7 -16 0 0 5 -14 1 -2 0 -1 1 -3 5 -11 1 -2 0 -1 5 -14 1 -2 0 -1 0 0 5 -14 1 -1 0 -2 1 -2 5 -12 0 -1 1 -2 4 -11 0 -3 1 -1 0 -2 1 -2 1 -3 1 -3 1 -3 1 -1 1 -5 1 -3 1 -2 1 -3 1 -3 1 -3 1 -3 1 -3 1 -3 1 -3 1 -2 4 -15 5 -14 4 -14 4 -14 4 -15 4 -14 4 -15 4 -14 4 -15 0 0 4 -14 3 -15 4 -14 3 -15 3 -15 4 -14 3 -15 3 -15 3 -15 2 -15 3 -15 3 -14 0 0 2 -15 3 -15 2 -16 0 0 2 -15 2 -15 2 -15 2 -15 2 -15 1 -15 2 -16 0 0 1 -15 2 -15 1 -16 1 -15 1 -15 0 0 1 -16 1 -15 1 -16 0 -15 1 -16 0 0 0 -15 0 -16 0 0 0 -16c1,-10 1,-20 0,-31l0 -15 0 0 0 -16 -1 -16 0 0 0 -16 -1 -15 0 -16 0 0 -1 -16 0 0 -1 -16 0 0 -2 -16 0 0 -1 -15 -1 -16 0 0 -2 -16 -1 -16 0 0 -2 -16 -2 -16 -2 -16 -2 -16 -2 -16m-3010 -3456c-10,19 -20,37 -31,55m141 -259c-15,29 -31,58 -46,87m76 -146c-10,20 -20,39 -30,59m502 -1230c-105,392 -276,790 -472,1171m484 -1176c-2,-9 -3,-17 -4,-25m8 47c-1,-7 -3,-14 -4,-22m10 50c-2,-8 -4,-16 -5,-24m10 46c-2,-7 -4,-15 -5,-22m11 49c-2,-8 -4,-15 -5,-22m10 45c-2,-7 -3,-13 -5,-20m2359 4752l0 0c-2,-13 -4,-25 -6,-38l-1 -4c-2,-12 -4,-24 -6,-36l-1 -4c-2,-12 -4,-24 -6,-35l-1 -5 -1 -3c-2,-10 -3,-20 -5,-29l-2 -7 -1 -4c-1,-8 -3,-16 -5,-25l0 -3m-1572 -2928l5 8 4 7c53,87 105,173 157,256l5 8 4 7 5 7 4 7 4 7 5 7 22 36 4 7 5 7 0 0 4 7 5 7 4 7 4 7 3 4 2 3 4 7 5 7 4 6 4 7 2 3 7 11 4 7 5 7 3 5 1 2m1328 2701c-2,-14 -4,-27 -6,-41 2,14 4,27 6,41zm-3382 -2820l0 0 0 0zm1769 -342l0 0 285 461 0 0 3 5 3 5 7 10 6 9 6 10 5 8 1 2 6 10 7 10 6 9 6 10 0 0 6 10 6 9 6 10 31 47 2 5 10 14 6 9 6 10 4 6 1 3 6 9 6 10 6 9 12 18 6 9 5 9 23 36 6 9 2 3 4 6 17 26 3 6 2 3 6 9 15 24 1 2 6 8 5 9 5 8 6 9 0 0 10 16 6 9 5 8 1 2 4 6 15 25 3 4 3 4 5 8 5 8 8 14 2 2c6,10 13,21 19,31l4 6 3 5 4 6 3 5 4 6 3 6 4 5 0 0 3 6 0 0 4 5 3 6 4 5 3 6 4 5 3 6 0 0 4 6 3 5 0 0 4 6 0 0 3 5 3 6 4 5 0 0 3 6 0 0 4 5 3 6 4 5 0 0 3 6 0 0 4 5 3 6 0 0 4 5 3 5 4 6 3 5 3 6 4 5 3 6 4 5 0 0 3 6 0 0 4 5 3 5 0 0 3 6 4 5 3 6 4 5 3 5 0 0 4 6 0 0 3 5 3 6 4 5 3 5 4 6 3 5 3 6 4 5 3 5 4 6 3 5 3 5 4 6 3 5 3 5 4 6 3 5 4 5 2 4 1 2 3 5 2 4 3 3 1 2 1 1 2 4 2 3 0 0 2 4 2 3 2 2 0 1 3 4 2 3 0 1 2 3 2 3 2 3 0 0 2 4 2 3 1 1 2 3 2 3 1 3 1 0 2 4 2 3 1 2 1 2 2 3 2 3 0 0 2 4 3 3 1 2 1 1 2 4 2 3 0 1 2 3 2 3 2 2 0 1 2 4 2 3 1 1 2 3 2 3 1 3 1 0 2 4 2 3 1 1 1 2 2 4 2 3 0 0 2 4 2 3 1 2 2 1 2 4 2 3 0 0 2 3 2 4 1 2 1 1 2 4 2 3 0 1 2 2 2 4 2 2 0 1 2 3 2 4 1 1 1 2 3 4 1 3 1 0 2 3 2 4 1 1 0 0 1 2 2 3 2 4 3 5 3 5 12 20 3 4 14 24 2 3 2 3c10,17 20,34 30,51l1 2 0 0 15 25 3 5 14 25 1 1 14 24 4 8 11 19 2 4 2 3 13 24 3 4 12 22 3 5 14 26 1 1 13 26 2 4c10,17 19,34 28,52l3 5 13 26 0 0c5,9 10,19 14,28l1 2c5,9 9,17 13,26l1 2 1 2c4,8 8,16 12,24l3 5c4,8 7,16 11,25l2 2c4,9 8,18 13,28l1 3 10 22 4 7c4,9 8,18 11,26l2 4 10 22 4 8c3,9 7,17 11,26l0 1 0 0c4,9 7,17 11,25l3 9c4,8 7,16 10,24l1 2 1 1c3,9 7,18 10,26l3 6c2,8 5,15 8,23l3 6c3,9 7,18 10,27l2 5c3,9 6,17 9,26l2 3c3,10 7,20 10,29l1 3c3,9 6,17 9,26l2 6c4,9 7,18 10,28l0 1 1 3c3,9 6,17 9,26l2 6c3,10 6,19 9,29l0 1c3,9 6,18 9,28l2 8c3,9 5,18 8,26l0 3c3,10 6,20 9,30l1 5c3,8 5,17 7,26l2 7c3,10 6,19 8,29l1 5c3,9 5,18 7,27l1 6c3,10 6,20 8,31l1 4c2,8 4,17 6,26l2 10c2,10 4,20 7,30l41 234 -233 -202 -1025 -933 -1640 -1463 -400 -361 2 -3 1 -2 1 -1 6 -9 0 -2 1 -1 3 -5 1 -1 0 -1 1 -1 1 -2 0 0 1 -1 0 -1 1 -1 1 -2 1 -1 0 -1 1 -1 1 -1 0 -2 1 -1 1 -1 1 -1 0 -2 1 -1 1 -1 1 -1 0 -1 1 -2 1 -1 1 -1 0 -1 1 -2 1 -1 0 0 1 -1 0 -1 1 -2 1 -1 0 -1 1 -1 1 -1 1 -2 0 -1 1 -1 1 -1 1 -2 0 -1 1 -1 1 -1 1 -1 0 -2 1 -1 1 -1 1 -1 16 -28 16 -27 0 0 16 -27 16 -28 16 -27 16 -28 0 0 16 -28 0 0 17 -27 0 0 16 -28 0 0 16 -29 0 0 16 -28 0 0 16 -28 0 0 15 -29 0 0c11,-18 21,-36 31,-55l1 -2 0 0 16 -28 0 0 15 -29 0 0 16 -29 0 0 16 -29 0 0c15,-29 30,-58 46,-87l0 0c10,-20 20,-39 30,-59l0 0c196,-381 367,-779 472,-1171l0 0c2,-10 5,-20 8,-30 1,8 2,16 4,25l0 0 0 0c1,8 3,15 4,22l1 3 0 1c1,8 3,16 5,24l0 0c1,7 3,15 5,22l1 5c1,7 3,14 5,22l0 3c2,7 3,13 5,20l2 7 5 21 1 3 5 20 2 9 5 17 2 9 5 18 3 8 5 18 3 9 0 1 4 14 1 1 3 11 1 1 4 14 0 1 4 11 0 2 4 13 5 14 4 13 5 13 2 6 8 23 0 0c51,147 114,299 186,452l0 0c134,286 296,578 462,856l0 0 8 13 0 0 8 13z"/>
 </g>
</svg>
