<?xml version="1.0" encoding="UTF-8"?>
<!DOCTYPE svg PUBLIC "-//W3C//DTD SVG 1.1//EN" "http://www.w3.org/Graphics/SVG/1.1/DTD/svg11.dtd">
<!-- Creator: CorelDRAW X8 -->
<svg xmlns="http://www.w3.org/2000/svg" xml:space="preserve" width="347.54mm" height="210mm" version="1.1" style="shape-rendering:geometricPrecision; text-rendering:geometricPrecision; image-rendering:optimizeQuality; fill-rule:evenodd; clip-rule:evenodd"
viewBox="0 0 34754 21000"
 xmlns:xlink="http://www.w3.org/1999/xlink">
 <defs>
  <style type="text/css">
   <![CDATA[
    .fil1 {fill:none}
    .fil9 {fill:#F1CECD}
    .fil6 {fill:#F5CECD}
    .fil10 {fill:#F5DEDC}
    .fil4 {fill:#FADAD9}
    .fil5 {fill:#FDDCDB}
    .fil7 {fill:#FEDCDC}
    .fil8 {fill:#FFCCCC}
    .fil14 {fill:#FF5957;fill-rule:nonzero}
    .fil22 {fill:#FF5C5A;fill-rule:nonzero}
    .fil19 {fill:#FF6866;fill-rule:nonzero}
    .fil18 {fill:#FF7270;fill-rule:nonzero}
    .fil23 {fill:#FF8483;fill-rule:nonzero}
    .fil21 {fill:#FF8988;fill-rule:nonzero}
    .fil16 {fill:#FF9A99;fill-rule:nonzero}
    .fil20 {fill:#FFA2A1;fill-rule:nonzero}
    .fil15 {fill:#FFB9B8;fill-rule:nonzero}
    .fil17 {fill:#FFCFCE;fill-rule:nonzero}
    .fil24 {fill:#FFD2D2;fill-rule:nonzero}
    .fil12 {fill:#23282A;fill-rule:nonzero;fill-opacity:0.050980}
    .fil25 {fill:#AD3537;fill-rule:nonzero;fill-opacity:0.400000}
    .fil3 {fill:url(#id0)}
    .fil2 {fill:url(#id1)}
    .fil13 {fill:url(#id2)}
    .fil0 {fill:url(#id3)}
    .fil11 {fill:url(#id4)}
   ]]>
  </style>
  <linearGradient id="id0" gradientUnits="userSpaceOnUse" x1="27815.8" y1="17887" x2="4698.35" y2="18403.4">
   <stop offset="0" style="stop-opacity:1; stop-color:#F4F5F6"/>
   <stop offset="0.0588235" style="stop-opacity:1; stop-color:#EAACA0"/>
   <stop offset="0.109804" style="stop-opacity:1; stop-color:#E3B4AC"/>
   <stop offset="0.419608" style="stop-opacity:1; stop-color:#F27359"/>
   <stop offset="1" style="stop-opacity:1; stop-color:#DF6249"/>
  </linearGradient>
  <linearGradient id="id1" gradientUnits="userSpaceOnUse" x1="-1544.93" y1="7815.54" x2="31377" y2="7815.54">
   <stop offset="0" style="stop-opacity:1; stop-color:#EF4442"/>
   <stop offset="0.262745" style="stop-opacity:1; stop-color:#E03C3D"/>
   <stop offset="0.529412" style="stop-opacity:1; stop-color:#D13D3D"/>
   <stop offset="1" style="stop-opacity:1; stop-color:#D03438"/>
  </linearGradient>
  <linearGradient id="id2" gradientUnits="userSpaceOnUse" x1="5628.5" y1="8573.71" x2="19441.3" y2="8053.26">
   <stop offset="0" style="stop-opacity:1; stop-color:#A31C1A"/>
   <stop offset="0.572549" style="stop-opacity:1; stop-color:#CE3233"/>
   <stop offset="0.690196" style="stop-opacity:1; stop-color:#FA494C"/>
   <stop offset="1" style="stop-opacity:1; stop-color:#FA494C"/>
  </linearGradient>
  <linearGradient id="id3" gradientUnits="userSpaceOnUse" x1="5619.31" y1="8460.8" x2="32563.7" y2="6321.23">
   <stop offset="0" style="stop-opacity:1; stop-color:#A31C1A"/>
   <stop offset="0.337255" style="stop-opacity:1; stop-color:#C82728"/>
   <stop offset="0.470588" style="stop-opacity:1; stop-color:#FA494C"/>
   <stop offset="1" style="stop-opacity:1; stop-color:#ED3237"/>
  </linearGradient>
  <linearGradient id="id4" gradientUnits="userSpaceOnUse" x1="8100.18" y1="8276.8" x2="27278.9" y2="21697.5">
   <stop offset="0" style="stop-opacity:1; stop-color:#F4F4F4"/>
   <stop offset="0.00392157" style="stop-opacity:1; stop-color:#EDEAEA"/>
   <stop offset="0.0117647" style="stop-opacity:1; stop-color:#A31C1A"/>
   <stop offset="0.54902" style="stop-opacity:1; stop-color:#FF8C8B"/>
   <stop offset="1" style="stop-opacity:1; stop-color:#E6DFDF"/>
  </linearGradient>
 </defs>
 <g id="Camada_x0020_1">
  <metadata id="CorelCorpID_0Corel-Layer"/>
  <g id="_1757238605648">
   <path class="fil0" d="M6737 15652c-79,1 -1324,-1407 -181,-2748l622 -729c333,-391 870,-776 1699,-1119 3019,-1250 6941,-1236 9012,-3179 68,-100 131,-205 191,-313 279,-508 428,-1357 427,-2262 -1360,182 -2674,-737 -3307,-1438 -487,-540 -575,-1124 -382,-1737 105,-335 233,-577 378,-747l621 -729c609,-713 1501,-128 2146,366 799,613 1163,2153 1165,3556 4,0 7,0 10,-1 876,-120 2586,296 3283,779 1152,801 1194,1043 2723,2753 920,1030 2643,1715 3815,872 1092,-786 3951,2058 3980,2075l-621 729c-30,-17 -2889,-2861 -3981,-2075 -1172,843 -2895,158 -3815,-872 -1529,-1710 -1571,-1952 -2723,-2753 -564,-391 -1790,-738 -2702,-792 -57,623 -191,1176 -395,1547 -140,253 -301,484 -480,695l-622 729c-1958,2296 -6156,2205 -9345,3526 -578,239 -1014,499 -1338,767 -660,1215 370,2372 442,2371l-622 729zm11737 -11071c-106,-1179 -469,-2326 -1133,-2835 -530,-407 -1229,-875 -1799,-630 -36,86 -71,179 -103,282 -193,613 -105,1197 383,1737 531,588 1539,1328 2652,1446z"/>
  </g>
  <path class="fil1" d="M7048 15288c-102,1 -2150,-2349 1518,-3868 3482,-1441 8165,-1201 9825,-4221 712,-1296 576,-4809 -739,-5817 -798,-612 -1975,-1362 -2524,380 -193,614 -104,1197 383,1737 635,704 1953,1625 3316,1438 876,-120 2586,295 3283,779 1152,800 1194,1043 2723,2753 920,1029 2643,1715 3815,871 1092,-786 3951,2059 3980,2075"/>
  <path class="fil2" d="M0 5022l0 113c2241,-2206 5071,-3743 8607,-2693 2384,709 5084,2551 6498,2485 1216,-56 1826,-406 2149,-805l551 -680c382,-471 365,-1012 472,-1223 62,-120 129,-237 202,-349 775,-775 1794,-1190 2554,-1011 1234,291 2858,1517 3764,2209 1615,1234 1944,1559 2780,1832 889,290 2145,-32 2804,-846l551 -680c273,-336 443,-756 445,-1251l-551 680c-1,331 -78,628 -210,889 -694,575 -1725,776 -2488,528 -836,-273 -1165,-599 -2780,-1832 -906,-692 -2530,-1918 -3764,-2209 -860,-203 -2053,356 -2849,1338l-551 680c-174,215 -329,450 -458,702 -79,156 -91,491 -245,845 -365,262 -932,461 -1825,503 -1413,66 -4114,-1777 -6498,-2485 -3832,-1138 -6835,763 -9158,3260zm0 4226l0 1253c849,814 1890,1574 2690,2334 726,689 933,1621 824,2179l-389 480c96,-3 178,-50 243,-131l551 -680c328,-404 237,-1660 -678,-2528 -984,-935 -2332,-1870 -3241,-2907z"/>
  <path class="fil1" d="M3401 15154c574,-19 662,-1617 -436,-2659 -889,-844 -2074,-1689 -2965,-2608m0 -4815c2283,-2351 5200,-4064 8883,-2970 2384,709 5084,2551 6498,2485 2650,-123 2422,-1638 2621,-2028 715,-1403 2258,-2288 3307,-2040 1233,291 2857,1517 3764,2209 1615,1234 1943,1559 2780,1832 1256,410 3243,-402 3248,-2097"/>
  <g id="_1757238672528">
   <path class="fil3" d="M27793 16998c120,1308 -1695,3043 -4063,3492l-1569 298c-1164,221 -2462,131 -3728,-474 -2112,-1008 -11613,-4901 -13792,-4494l1569 -298c2179,-407 11680,3486 13792,4495 987,470 1992,629 2938,572 1974,-637 3390,-2133 3283,-3293l1570 -298z"/>
  </g>
  <path class="fil1" d="M27008 17147c180,1951 -3949,4852 -7790,3018 -2112,-1008 -11614,-4901 -13793,-4494"/>
  <path class="fil4" d="M32800 17874l-882 4 0 882c883,4 0,0 883,4l1 734c306,2 690,2 1058,3 5,-35 3,-70 3,-104 -1,-71 0,-138 0,-211l5 -353c-3,-27 -5,-38 -4,-68l886 1c8,-304 2,-593 2,-893l-883 0c-2,-257 1,-484 -4,-735l-1066 -1c0,257 -1,472 1,737z"/>
  <path class="fil4" d="M33729 16182l-453 2 0 454c133,0 328,-5 454,2l1 377c157,1 355,1 544,2 -1,-18 2,-379 2,-379l455 1c4,-152 1,-307 1,-459l-454 0c-1,-137 1,-248 -2,-378l-548 -1c0,132 0,241 0,379z"/>
  <path class="fil4" d="M32408 13887l-432 2 0 433c126,0 313,-5 433,2l0 360c150,1 339,1 520,1 -1,-16 2,-361 2,-361l434 1c4,-145 1,-293 1,-439l-433 0c-1,-130 0,-236 -2,-360l-523 -1c0,126 -1,230 0,362z"/>
  <path class="fil4" d="M29750 17637l-322 1 0 322c94,0 233,-3 322,2l1 267c111,1 252,1 386,2 -1,-13 1,-269 1,-269l324 0c2,-107 0,-218 0,-326l-322 0c-1,-97 0,-175 -1,-268l-389 0c-1,94 -1,171 0,269z"/>
  <path class="fil5" d="M29366 14809l423 0 2 353 508 0c0,-118 0,-235 0,-353 119,-10 292,-1 421,-1 19,-60 12,-363 1,-422 -157,-1 -268,-3 -421,-1 -2,-82 9,-209 2,-345 -172,-3 -327,-10 -501,-10 -8,176 -8,261 -10,353l-424 0c-1,113 -1,269 -1,426z"/>
  <path class="fil6" d="M27452 14707c0,82 2,174 0,254 -101,0 -200,0 -303,0l0 309 303 0 1 253 369 0c7,-105 2,-144 1,-253l303 0 0 -308c-142,-3 -135,-1 -303,-1l0 -248c-219,-1 -263,-5 -371,-6z"/>
  <path class="fil4" d="M27165 13678c-56,4 -293,-7 -315,-1 -11,23 -6,279 -5,322l318 0c1,88 1,175 1,266 132,0 252,-1 384,-1 0,-99 1,-172 0,-266l317 -1c0,-53 6,-188 -4,-317l-313 0 -2 -266 -381 -1 0 265z"/>
  <path class="fil7" d="M25731 16257c-93,0 -186,-1 -280,0l0 303 301 0c16,55 -8,187 4,253l361 1 1 -253 302 0 1 -304 -304 0 0 -253 -363 -1 0 205c0,23 -5,34 -23,49z"/>
  <path class="fil8" d="M28870 16125l-258 0 -2 260 235 0c4,81 16,107 14,214 93,4 231,4 321,2l2 -215 258 -1c1,-96 2,-171 1,-259 -136,-1 -140,-4 -259,-2l-1 -215 -310 -1 -1 217z"/>
  <path class="fil9" d="M31027 16008c-187,4 -368,-4 -563,2 9,220 3,358 8,569 179,0 326,-5 553,22l4 452 686 2 1 -471c142,-2 318,5 566,-2 3,-208 3,-285 -7,-570 -206,-7 -340,-4 -558,-5 -11,-236 -21,-292 -28,-472l-660 0 -2 473z"/>
  <path class="fil5" d="M24844 14836l-231 0c-2,161 -2,-56 -1,232l226 2c10,60 9,160 9,197 187,-4 -60,-4 275,-4l1 -194c75,-1 154,7 232,-1l0 -230 -232 -1c0,-35 6,-173 -2,-195l-275 0 -2 194z"/>
  <path class="fil10" d="M23205 15589l-210 0 0 215 212 1 1 175 254 -1 1 -175c34,-1 140,0 204,-1 8,-89 6,-177 6,-211 -67,0 -144,1 -209,-1l-1 -177 -258 -1 0 176z"/>
  <g id="_1757238667696">
   <path class="fil11" d="M29960 14346c283,-624 -797,-2258 -2404,-2715 -1186,120 -2519,964 -3760,3157 -546,966 -1213,1279 -1878,1218l-1153 -105c-947,-87 -1890,-929 -2480,-1725 -886,-1196 -2118,-1971 -3454,-2240 -1622,28 -3290,792 -4604,2430 -740,923 -964,2264 -3051,2726 -1389,307 -1359,197 -2500,357l-1154 -105c1142,-160 1112,-50 2501,-357 2087,-462 2310,-1803 3051,-2726 1471,-1834 3386,-2573 5183,-2409l1153 106c1553,141 3017,957 4028,2323 466,628 1151,1285 1884,1576 473,-122 928,-479 1321,-1174 1447,-2558 3019,-3281 4338,-3160l1153 105c1915,175 3295,2127 2980,2823l-1154 -105z"/>
  </g>
  <path class="fil1" d="M30537 14398c533,-1174 -3771,-5934 -7317,337 -1323,2339 -3353,850 -4358,-507 -2182,-2945 -6469,-3334 -9211,85 -741,924 -964,2265 -3052,2726 -1389,307 -1359,198 -2500,357"/>
  <path class="fil12" d="M7714 20044c0,89 -1063,161 -2375,161 -1312,0 -2376,-72 -2376,-161 0,-89 1064,-161 2376,-161 1312,0 2375,72 2375,161z"/>
  <g id="_1757238667248">
   <path class="fil13" d="M6731 15646c-80,1 -1325,-1407 -181,-2748l621 -729c334,-391 871,-776 1699,-1119 3020,-1250 6942,-1236 9013,-3179 67,-100 131,-205 191,-313 712,-1297 634,-4890 -739,-5818l621 -729c1374,928 1452,4521 739,5818 -139,253 -300,484 -479,695l-622 729c-1958,2296 -6156,2205 -9345,3526 -578,239 -1015,499 -1339,767 -659,1215 371,2372 442,2371l-621 729z"/>
  </g>
  <path class="fil1" d="M7042 15282c-103,1 -2151,-2349 1518,-3868 3481,-1441 8165,-1201 9824,-4221 713,-1296 635,-4890 -739,-5817"/>
  <g id="_1757238655792">
   <g>
    <g>
     <path class="fil14" d="M7961 16322c-137,-965 -584,-1578 -1064,-2349 -480,-770 -1406,-2105 -1570,-3074 -290,1124 -1090,2304 -1570,3074 -481,771 -878,1384 -1015,2349 -137,965 335,1857 1000,2321 411,286 923,502 1585,503 662,-1 1223,-217 1634,-503 665,-464 1138,-1356 1000,-2321z"/>
    </g>
    <g>
     <path class="fil15" d="M6184 12838l-303 567 -224 -1540c152,325 338,657 527,973z"/>
     <path class="fil16" d="M5657 11865l224 1540 -1501 -433c380,-636 764,-1365 947,-2073 50,297 172,627 330,966z"/>
     <path class="fil17" d="M6498 13345l-617 60 303 -567c105,175 212,346 314,507z"/>
     <path class="fil18" d="M7140 14358l-1259 -953 617 -60c147,233 285,446 399,628 82,132 164,260 243,385z"/>
     <path class="fil19" d="M5881 13405l1259 953c50,80 100,160 148,239l-409 1809 -998 -3001z"/>
     <path class="fil20" d="M7916 16064l-1037 342 409 -1809c275,453 508,900 628,1467z"/>
     <path class="fil21" d="M4380 12972l1501 433 -188 1445 -1365 -1792c17,-28 35,-57 52,-86z"/>
     <polygon class="fil22" points="5881,13405 6879,16406 5693,14850 5693,14850 "/>
     <path class="fil19" d="M7869 17396l-990 -990 1037 -342c17,83 33,169 45,258 54,376 15,741 -92,1074z"/>
     <path class="fil19" d="M4328 13058l1365 1792 0 0 -640 318 -757 -2057c11,-17 21,-35 32,-53z"/>
     <path class="fil20" d="M4296 13111l757 2057 -781 636 -22 -1505 -17 -1085c21,-34 42,-69 63,-103z"/>
     <path class="fil17" d="M4233 13214l17 1085 -27 0 -614 -89c48,-77 97,-156 148,-237 138,-222 304,-479 476,-759z"/>
     <polygon class="fil23" points="5693,14850 6879,16406 5053,15168 "/>
     <path class="fil18" d="M6879 16406l990 990c-22,68 -47,134 -74,199l-1435 3 519 -1192z"/>
     <polygon class="fil17" points="5053,15168 6879,16406 4272,15804 "/>
     <polygon class="fil19" points="4272,15804 6879,16406 6024,17261 "/>
     <polygon class="fil20" points="6879,16406 6360,17598 6024,17261 "/>
     <path class="fil21" d="M6603 18853l-396 -821 1557 -366c-184,403 -469,744 -803,977 -109,76 -229,147 -358,210z"/>
     <path class="fil17" d="M7764 17666l-1557 366 153 -434 1435 -3c-10,24 -20,47 -31,71z"/>
     <path class="fil22" d="M4250 14299l22 1505 -938 -1135c86,-151 178,-303 275,-459l614 89 27 0z"/>
     <polygon class="fil24" points="6024,17261 6360,17598 6207,18032 5198,18413 4525,18087 5140,17473 "/>
     <path class="fil18" d="M3334 14669l938 1135 -1325 -315c104,-290 236,-555 387,-820z"/>
     <polygon class="fil22" points="4272,15804 6024,17261 5140,17473 "/>
     <path class="fil19" d="M2947 15489l1325 315 -1499 510 -25 -35c44,-290 112,-549 199,-790z"/>
     <polygon class="fil16" points="4272,15804 5140,17473 4525,18087 "/>
     <polygon class="fil15" points="4272,15804 4525,18087 2817,16379 2773,16314 "/>
     <path class="fil19" d="M6207 18032l396 821c-119,59 -247,111 -382,154l-1023 -594 1009 -381z"/>
     <path class="fil15" d="M5198 18413l1023 594c-270,87 -570,139 -894,139 -23,0 -45,0 -67,0l-62 -733z"/>
     <path class="fil22" d="M2748 16279l25 35 -15 6 -16 1c2,-14 4,-28 6,-42z"/>
     <path class="fil18" d="M4525 18087l673 326 -1031 477c-72,-34 -141,-70 -207,-109l565 -694z"/>
     <path class="fil22" d="M5198 18413l62 733c-98,-3 -192,-10 -283,-21l221 -712z"/>
     <path class="fil16" d="M5198 18413l-221 712c-303,-38 -571,-122 -810,-235l1031 -477z"/>
     <path class="fil23" d="M2817 16379l1708 1708 -1390 -70c-255,-381 -414,-848 -417,-1348l40 -349 59 59z"/>
     <path class="fil17" d="M3135 18017l1390 70 -565 694c-76,-43 -148,-90 -218,-138 -231,-162 -440,-375 -607,-626z"/>
     <path class="fil20" d="M2758 16320l-40 349c0,-114 7,-230 24,-347l0 -1 16 -1z"/>
    </g>
   </g>
  </g>
  <path class="fil25" d="M2639 16579l0 0c0,16 1,32 1,47m2639 2431c10,0 19,-1 29,-1m-2431 -3681c-3,8 -6,16 -9,25m1379 -2429l0 1 -1 1 0 1 -2 2 0 1 -1 1 0 1 -1 1 -1 1 0 1 -1 1 0 1 -1 1 0 0 -1 1 0 1 -1 1 0 1 -1 0 0 1 0 0 -1 1 0 1 -1 1 0 1 -1 0 0 1 -1 1 0 1 -1 1 0 1 -1 0 0 1 -1 1 0 1 0 1 -1 0 0 1 -1 1 0 1 -1 1 0 1 -1 0 0 1 -1 1 0 1 -1 1 0 0 -1 1 0 1 -1 1 0 1 -1 1 0 0 -1 1 0 1 -1 1 0 1 -1 0 -1 2 -1 2 -1 1 0 0 -1 2 -1 2 -1 1 -1 2 -1 1 -1 2 -1 2 -1 1 -1 2 -1 1 -1 2 -1 2 -1 1 -1 2 -1 1 -1 2 -1 2 -1 1 -1 2 -1 2 0 0 -1 1 -1 2 0 1 -1 2 -1 2 -1 1 -1 2 -1 1 -1 2 -1 2 -1 1 -1 2 -1 1 -1 2 -1 2 -1 1 -1 2 -1 1 -1 2 -1 2 -1 1 0 0 -1 2 -1 1 -1 2 -1 2 -1 1 -1 2 -1 1 -1 2 -1 2 -1 1 -1 2 -1 1 -1 2 -1 2 -1 1 -1 2 -1 1 -1 2 -1 1 -1 2 -48 78 -8 13 -8 13 -8 13 -8 13 -8 12 -16 26 -8 12c-15,26 -31,51 -47,75l-7 13 -8 12 -4 6 -4 6 -8 13 -7 12 -8 12 0 0 -8 12 -7 12 -8 12 -3 6 -5 6 -7 12 -8 12 -6 11 -1 1 -8 12 -7 12 -8 12 -2 4 -5 7 -7 12 -8 12 -6 9 -1 2 -7 12 -8 11 -7 12 -2 3 -5 8 -7 12 -7 11 -5 8 -3 3 -7 12 -14 22 -1 2 -6 9 -7 11 -7 11 -4 7 -3 4 -6 11 -7 11 -7 11 -1 0 -6 10 -6 11 -7 11 -4 5 -3 5 -20 32 -2 4 0 0 -2 3 0 0 -3 4 0 0 -2 4 0 0c-43,69 -85,137 -127,204l0 0 -4 7 0 0 -7 11 -5 7 0 1 -4 7 -3 4 -2 3 -4 7 -1 1 -4 6 -2 4 -2 4 -5 7 0 0 -4 7 -3 4 -2 3 -4 8 0 0 -5 7 -2 4 -2 3 -5 7 0 1 -4 7 -2 4 -2 3 -5 7 0 0 -4 7 -3 4 -2 4 -4 7 0 0 -5 7 -2 4 -2 3 -4 7 -1 1 -4 6 -2 4 -2 4 -4 7 -1 0 -4 7 -2 4 -2 3 -4 7 -1 1 -4 7 -2 3 -2 4 -4 7 -1 0 -4 7 -2 4 -2 3 -4 7 0 1 -5 6 -2 4 -2 4 -4 7 0 0 -4 7 -3 4 -2 3 -4 7 0 0 -4 7 -2 4 -2 3 -5 7 0 1 -4 7 -2 3 -2 4 -4 7 0 0c-9,14 -17,28 -25,42l0 1 -4 7 -2 3c-15,25 -29,50 -43,75l-6 10 -1 2c-12,21 -24,41 -35,62l-3 5 0 1 -11 19 -2 3 -11 22 -1 1 -2 3 -11 21 0 0 -12 23 -1 2 -12 21 -2 4 -9 17 -2 4 -8 16 -3 5 0 1 -10 19 -2 4 0 0 -11 21 -1 2 0 1 -11 22 -1 0 0 1 -10 21 -1 2 -1 2 0 0 -9 18 -2 3 -2 4 -6 13 -1 3 -4 8 -1 1 -6 13 -2 5 -2 3 -8 18 -2 3 -4 9 -6 13 -1 2 -5 11 -6 13 0 0 -2 4 -7 16 -2 4 0 1 -9 20 -1 3 -2 3 -6 13 -3 8 -1 2 -8 18 -3 7 -7 17 -2 4 -1 2 -8 20 0 1 -1 1 -1 4 -7 16 -2 5 0 0 -2 5 -7 16 -1 3 -1 2 -7 18 -3 8 0 1 -6 13 -1 3 -3 9 -1 1 -5 14 -1 2 -2 7 -8 19 -2 7 -7 19 -1 2c-3,8 -6,16 -9,25l-4 11c-4,11 -8,22 -12,34l0 1c-4,11 -8,22 -11,32l-1 2 -4 11 -7 22 0 1 -4 12 -1 1 -7 22 -3 12 -1 2 -7 24 -6 19 -5 18 -7 21 -5 19 -6 20 -4 16 -6 21 -5 20 -6 22 -4 15 -6 25 -4 15c-2,10 -4,19 -7,29l-2 9c-2,11 -5,22 -7,33l-2 7c-2,11 -5,22 -7,32l-2 10c-2,11 -5,23 -7,34l-1 5c-3,13 -5,26 -8,39l0 1 0 0c-3,14 -5,28 -8,41l0 2c-3,13 -5,26 -7,40l-1 4c-2,13 -4,27 -7,40l0 3c-2,14 -5,28 -7,42l0 1 0 1 0 0c-2,13 -4,25 -6,38l0 1 0 0 0 1 0 1 0 1c-2,14 -4,29 -6,43l0 2 0 0c-2,15 -4,29 -5,44l0 2c-2,13 -3,27 -4,40l-1 7c-1,13 -2,25 -2,37l-1 10c-1,11 -1,22 -2,34l0 12c-1,10 -1,20 -2,31l0 15c0,9 0,18 -1,27l0 18c0,8 0,16 0,24 0,16 1,32 1,47l0 0c0,8 0,16 1,23l0 1c0,7 0,15 1,23l0 0c0,7 0,15 1,23l0 0c0,8 1,15 1,23l0 0c0,8 1,15 2,23l0 0c0,8 1,16 1,23l0 0 2 23 0 0c1,8 2,15 3,23l0 0c0,8 1,15 2,23l0 0c1,8 2,15 3,23l0 0c1,7 2,15 3,22l0 1c1,7 2,15 3,22l0 0c1,8 2,15 3,23l0 0c1,7 2,15 4,22l0 0c1,8 2,15 3,23l0 0c2,7 3,15 4,22l0 0c4,23 9,45 13,67l0 0c3,15 6,29 10,44l0 0c3,15 7,29 10,44l0 0c2,7 4,14 6,22l0 0c15,58 32,115 51,171l0 0c2,7 5,14 7,21l0 0c17,49 36,98 55,145l0 0c9,20 18,41 27,61l0 0c9,20 18,40 28,59l0 0c38,79 80,156 125,229l0 0 12 18 0 0c4,7 7,13 11,19l0 0c4,6 8,12 12,18l0 0 12 18 1 1c4,7 9,13 13,19l7 10c5,8 11,16 16,24l4 5c4,6 9,13 13,19l7 9c5,7 11,15 17,23l5 6c4,6 9,13 14,19l8 10c5,6 10,13 15,19l6 8 13 16 12 14 11 14 10 12 12 14 13 14 10 12 12 13 10 12c5,5 10,10 15,15l7 8c6,6 11,12 17,18l8 8c5,6 10,11 15,16l9 8c6,7 12,13 18,19l6 6c6,6 12,11 18,17l5 5c7,6 14,13 21,19l6 6c6,6 13,11 19,17l4 4c8,6 15,13 22,19l6 5c6,6 13,11 20,17l3 3c8,7 16,13 24,20l3 2c8,7 15,13 23,19l2 1 1 1c8,6 16,13 24,19l3 2c8,6 16,13 25,19l0 0 0 1c9,6 18,12 26,18l2 2c9,6 18,12 26,18l17 12 3 2 0 0 3 2 16 11 1 0c12,9 24,17 36,25l3 1 1 1 16 11 2 1 2 1 10 7 3 2 4 2 3 2 4 2 10 7 3 2 2 1 2 1 3 2 4 2 3 2 4 2 3 2 3 3 4 2 3 2 4 2 3 2 1 1 6 3 0 0 4 2 3 2 4 2 3 2 0 0 7 5 4 2 3 2 4 2 3 2 4 2 3 1 0 0 3 2 3 2 3 2 0 0 3 2 0 0 3 1 0 0 7 4 0 0 3 2 0 0 6 3 0 0 16 9 0 0 3 2 0 0 3 2 0 0 4 1 0 0 3 2 0 0 6 4 0 0 3 1 0 0 7 4 0 0 3 1 0 0 6 4 4 2 0 0 6 3 10 5 0 0 6 3 0 0 7 4 0 0 3 1 3 2 1 0 6 4 3 1 4 2 3 1 3 2 3 2 4 1 3 2 3 2 0 0 4 1 0 0 6 4 0 0 4 1 0 0 6 3 7 4 0 0 17 8 5 2 4 2 2 1 15 7 4 2 10 4 14 7 2 1 10 4 2 1 14 6 9 4 11 5 10 4 4 1 10 4 11 5 1 0 10 4 1 1 12 4 10 4 3 2 10 4 12 4 2 1 9 3 1 1 12 4 9 3 6 3c11,4 22,7 34,11l1 1c7,2 14,5 21,7l6 2 9 3 12 4 0 0 12 4 1 0 12 4 12 4 1 0 12 4 13 3 0 0 11 4 1 0 13 4 12 3 2 0c28,9 58,16 87,23l3 1c22,5 43,10 65,15l1 0c35,7 71,14 107,21l2 0c8,1 17,3 25,4l2 0c27,5 55,9 83,13l15 1 4 1 1 0 3 0 2 1 2 0 3 0 2 0 4 1 0 0 4 0 1 0 4 1 1 0 3 0 2 1 2 0 4 0 1 0 4 1 0 0 4 0 1 0 4 1 2 0 2 0 3 0 1 1 4 0 1 0 4 0 1 0 3 1 2 0 3 0 2 0 2 1 4 0 0 0 5 0 0 0 4 1 1 0 3 0 3 0 2 1 3 0 1 0 5 0 4 1 1 0 3 0 2 0 3 0 3 1 1 0 4 0 1 0 4 0 5 1 1 0 3 0 4 0 4 1 1 0 4 0 0 0 5 0 4 0 2 1 3 0 9 0 4 0 1 0 8 1 3 0 2 0 3 0 1 0 18 1 4 0 1 0 4 1 0 0c24,1 48,1 72,2l0 0 3 0 1 0 6 0 0 0 1 0 1 0 0 0 1 0 1 0 0 0 1 0 1 0 0 0 2 0 0 0 1 0 0 0 1 0 1 0 0 0 1 0 1 0 0 0 1 0 1 0 0 0 1 0 0 0 1 0 1 0 0 0 1 0 1 0 0 0 1 0 1 0 0 0 1 0 1 0 0 0 1 0 0 0 1 0 1 0 1 0 1 0 0 0 1 0 1 0c10,0 20,0 30,0l1 0c10,0 19,-1 29,-1l1 0 3 0c19,0 37,-1 56,-2l3 0 3 0c8,0 17,-1 25,-1l5 0c9,-1 18,-1 27,-2l1 0c9,-1 18,-1 27,-2l7 0 24 -2 3 -1 24 -2 8 0 21 -2 10 -2 19 -2 9 -1 22 -2 7 -1 22 -3 7 -1 20 -2 11 -2 18 -3 9 -1 19 -3 10 -2 20 -3 7 -1 20 -4 8 -2 20 -3 9 -2 18 -4 9 -1 13 -3 3 -1 19 -4 10 -2 15 -3 11 -3 19 -4 9 -3 17 -4 9 -2 19 -5 8 -2 18 -5 8 -2 19 -5 7 -2 20 -6 5 -1 20 -6 7 -2c15,-5 31,-10 46,-15l0 0 7 -2 3 -1 3 -1 10 -3 3 -1 11 -4 1 0 6 -2 7 -2 0 0 12 -5 2 0 10 -4 3 -1 10 -3 4 -2 2 0 10 -4 1 -1 1 0 1 0c8,-3 16,-6 24,-9l1 -1c8,-2 15,-5 23,-8l4 -2 13 -5 1 0 12 -5 0 0 12 -5 2 0c8,-4 17,-8 26,-11l2 -1c21,-9 41,-18 62,-27l2 -1c8,-3 15,-7 23,-10l0 0c23,-11 46,-21 68,-32 28,-14 56,-28 83,-43l0 0c18,-9 35,-19 52,-28l0 0 6 -4 0 0 6 -3 0 0 11 -6 0 0 17 -10 0 0 6 -3 0 0 5 -4 0 0 6 -3 0 0 6 -3 0 0 5 -4 0 0 6 -3 0 0 5 -3 0 0 6 -4 5 -3 0 0 6 -3 5 -4 6 -3 5 -3 0 -1 6 -3 5 -3 0 0 5 -4 0 0 6 -3 5 -4 5 -3 6 -3 5 -4 5 -3 6 -4 5 -3 5 -4 5 -3 6 -4 5 -3 5 -4 5 -3 5 -4 6 -3 5 -4 5 -4c5,-3 10,-7 15,-11 6,-3 11,-7 16,-11l15 -11 16 -11c5,-4 10,-8 15,-12l15 -12 0 0 16 -12 15 -12 0 0 15 -12c5,-4 10,-8 15,-12 5,-5 10,-9 14,-13l15 -13c5,-4 10,-8 15,-12 5,-5 10,-9 14,-13l15 -13c5,-5 10,-9 14,-14 5,-4 10,-9 15,-13l14 -14 14 -13 0 0 14 -14 0 0 14 -14c5,-5 9,-9 14,-14l0 0 14 -14 13 -15 14 -14 0 0 13 -15 14 -14 0 0 13 -15 13 -15 13 -15 0 0 13 -16 13 -15 0 0c4,-5 8,-10 12,-16l0 0c5,-5 9,-10 13,-15l12 -16 0 0c5,-5 9,-11 13,-16l12 -16 0 0c4,-5 8,-11 12,-16l12 -16 12 -17 12 -16 12 -17 11 -16 12 -17 0 0 11 -17 11 -17 11 -17 11 -18 11 -17 10 -17 11 -18c3,-6 7,-12 10,-18l11 -17 10 -18 10 -18 9 -19 10 -18 10 -18 9 -18 9 -19 10 -19 9 -18c3,-6 6,-13 8,-19l9 -19 1 -1 0 -1c4,-9 8,-18 12,-26l0 -2 1 -1 2 -4 0 -1c5,-12 10,-23 15,-35l7 -17 1 -1 0 0 0 0 7 -18 0 0 6 -15 1 -3 0 -1 2 -3 4 -12 1 -2 1 -1 5 -15 1 -2 1 -2 0 0 5 -15 1 -2 0 -1 1 -3 5 -13 1 -1 0 -2 4 -12 2 -4 0 -1 1 -2 1 -3 1 -3 1 -3 1 -3 0 -1 2 -6 1 -3 1 -3 1 -3 1 -3 1 -3 1 -4 1 -3 1 -3 1 -3 1 -3 5 -16 5 -15 5 -16 5 -16 4 -16 5 -16 4 -16 4 -16 5 -15 0 0 4 -17 4 -16 3 -16 4 -16 4 -16 3 -16 4 -17 3 -16 3 -16 3 -17 3 -16 3 -17 0 0 3 -16 2 -17 3 -16 0 0 2 -17 3 -16 2 -17 2 -17 2 -17 2 -16 2 -17 0 0 1 -17 2 -17 1 -17 1 -17 1 -17 0 0 1 -17 1 -17 1 -17 1 -17 0 -17 0 0 1 -17 0 -17 0 0 0 -18c0,-11 0,-23 0,-34l0 -17 0 0 -1 -18 0 -17 0 0 -1 -17 0 -18 -1 -17 0 0 -1 -17 0 0 -1 -18 0 0 -2 -17 0 0 -1 -18 -1 -17 0 0 -2 -18 -2 -17 0 0 -2 -18 -2 -18 -2 -17 -2 -18 -3 -17m-3317 -3809c-11,20 -23,40 -34,61m155 -287c-17,33 -34,65 -51,97m84 -161c-11,22 -22,43 -33,64m553 -1355c-115,432 -304,871 -520,1291m534 -1297c-2,-9 -4,-18 -5,-27m9 52c-1,-8 -3,-16 -4,-24m10 54c-2,-9 -3,-17 -5,-26m11 51c-2,-8 -4,-16 -6,-25m12 54c-2,-8 -4,-16 -5,-24m11 50c-1,-7 -3,-15 -5,-23m2600 5239l0 -1c-3,-14 -5,-27 -7,-41l-1 -5c-2,-13 -4,-27 -7,-40l0 -4c-3,-13 -5,-26 -8,-39l0 -5 -1 -4c-2,-10 -4,-21 -6,-32l-2 -7 -1 -4c-2,-9 -4,-18 -5,-28l-1 -3m-1732 -3227l5 8 5 8c57,96 115,191 173,283l5 8 4 7 5 8 5 8 5 8 5 8 24 39 5 8 5 7 0 0 5 8 5 8 5 7 5 8 3 5 1 3 5 8 5 7 5 8 5 7 1 3 8 13 5 7 5 8 3 5 2 2m1463 2978c-2,-15 -4,-30 -6,-45 2,15 4,30 6,45zm-3728 -3109l0 0 0 0zm1951 -376l0 0 314 507 0 0 3 6 4 5 7 11 6 11 7 11 5 8 2 3 7 10 7 11 7 11 6 10 0 0 7 11 7 11 7 10 33 53 3 4 10 16 7 11 6 10 5 7 2 3 6 10 7 11 6 10 13 20 7 10 6 10 25 40 7 9 2 4 4 6 18 29 4 6 2 4 7 9 17 27 1 2 6 9 6 10 6 9 5 9 1 1 11 18 6 9 6 9 2 3 4 6 17 27 3 5 2 4 6 9 5 9 10 15 1 2c8,12 15,23 22,35l4 6 4 6 3 6 4 7 4 6 4 6 4 6 0 0 4 6 0 0 4 6 3 6 4 7 4 6 4 6 4 6 0 0 4 6 3 6 0 0 4 6 0 0 4 6 4 6 4 6 0 0 4 6 0 0 3 6 4 7 4 6 0 0 4 6 0 0 4 6 3 6 0 0 4 6 4 6 4 6 4 6 3 6 4 6 4 6 4 6 0 0 4 6 0 0 3 6 4 6 0 0 4 6 4 6 3 6 4 6 4 5 0 0 4 6 0 0 4 6 3 6 4 6 4 6 4 6 3 6 4 6 4 6 4 6 3 6 4 6 4 6 3 5 4 6 4 6 4 6 3 6 4 6 2 4 2 2 3 6 3 3 2 4 1 2 2 2 2 4 2 3 0 1 3 3 2 4 1 2 1 2 3 3 2 4 1 1 1 3 3 4 2 2 0 1 2 4 3 4 1 1 1 3 3 3 2 4 0 0 2 4 3 4 1 1 1 2 2 4 3 4 0 0 2 4 2 3 2 2 1 2 2 4 2 3 0 1 3 3 2 4 1 3 1 1 2 3 3 4 0 1 2 3 2 4 2 3 1 0 2 4 2 4 1 1 2 2 2 4 2 4 0 0 3 4 2 3 1 2 1 2 2 4 3 4 0 0 2 3 2 4 2 2 1 2 2 3 2 4 1 1 2 3 2 4 2 2 0 1 2 4 3 4 0 1 2 2 2 4 2 3 0 1 3 4 2 3 1 2 0 0 1 2 3 4 2 3 3 6 4 6 13 22 3 4 15 26 2 4 3 3c11,19 22,38 33,57l1 1 0 0 16 28 4 6 16 28 0 0 15 27 5 8 13 22 2 4 2 3 14 26 3 5 13 24 4 6 15 29 1 1 15 28 2 4c11,19 21,39 31,58l3 6 15 28 0 1c5,10 10,20 15,30l1 2c5,10 10,19 15,29l1 2 1 2c4,9 9,18 13,27l3 6c4,9 8,17 13,26l1 3c5,10 10,20 14,31l2 3 11 25 4 8c4,9 9,19 13,28l2 4 10 24 5 10c4,9 8,18 12,28l0 1 0 0c4,9 8,19 12,28l4 9c4,9 7,18 11,27l1 2 0 1c4,10 8,20 12,29l3 7c3,8 6,17 9,25l3 7c4,10 8,20 12,30l1 5c4,9 7,19 11,28l1 4c4,11 8,21 12,32l1 3c3,10 7,19 10,28l2 8c4,10 7,20 11,30l0 1 1 4c3,9 6,19 9,28l3 7c3,10 7,21 10,32l0 1c3,10 6,20 9,30l3 10c3,9 6,19 9,29l1 2c3,11 6,23 9,34l2 5c2,10 5,19 7,28l2 9c3,10 6,21 9,32l1 5c3,10 5,20 8,30l1 6c3,12 6,23 8,34l1 5c3,9 5,19 7,28l2 11c3,11 5,22 8,34l45 258 -257 -223 -1130 -1029 -1806 -1612 -442 -398 3 -3 1 -2 0 -1 7 -11 1 -1 0 -2 4 -5 0 -1 1 -2 1 -1 1 -1 0 0 1 -2 1 -1 0 -1 1 -2 1 -1 1 -1 1 -2 0 -1 1 -1 1 -2 1 -1 1 -1 0 -2 1 -1 1 -1 1 -2 1 -1 1 -2 0 -1 1 -1 1 -2 1 -1 1 -1 0 0 0 -2 1 -1 1 -1 1 -2 1 -1 0 -1 1 -2 1 -1 1 -1 1 -2 0 -1 1 -2 1 -1 1 -1 1 -2 1 -1 0 -1 1 -2 1 -1 1 -1 18 -30 17 -30 0 0 18 -30 18 -31 18 -30 18 -31 0 0 17 -30 0 0 18 -31 0 0 18 -31 0 0 17 -31 0 0 18 -31 0 0 18 -31 0 0 17 -31 0 0c11,-21 23,-41 34,-61l1 -2 0 0 17 -32 0 0 18 -32 0 0 17 -31 0 0 17 -32 0 0c17,-32 34,-64 51,-97l0 0c11,-21 22,-42 33,-64l0 0c216,-420 405,-859 520,-1291l0 0c3,-11 6,-22 9,-33 1,9 3,18 5,27l0 0 0 1c1,8 3,16 4,24l1 3 0 1c2,9 3,17 5,26l0 0c2,9 4,17 6,25l1 5c1,8 3,16 5,24l1 3c2,8 4,16 5,23l2 7 6 24 1 3 5 22 3 10 5 18 3 10 5 20 3 10 6 19 3 10 0 2 5 14 0 2 4 12 0 1 5 15 1 2 4 12 0 1 5 15 5 15 5 15 4 14 2 7 9 25 0 0c57,162 127,329 206,498l0 1c147,315 326,636 509,942l0 0 9 15 0 0 9 15z"/>
 </g>
</svg>
