<?xml version="1.0" encoding="UTF-8"?>
<!DOCTYPE svg PUBLIC "-//W3C//DTD SVG 1.1//EN" "http://www.w3.org/Graphics/SVG/1.1/DTD/svg11.dtd">
<!-- Creator: CorelDRAW X8 -->
<svg xmlns="http://www.w3.org/2000/svg" xml:space="preserve" width="274.83mm" height="71.539mm" version="1.1" style="shape-rendering:geometricPrecision; text-rendering:geometricPrecision; image-rendering:optimizeQuality; fill-rule:evenodd; clip-rule:evenodd"
viewBox="0 0 27483 7154"
 xmlns:xlink="http://www.w3.org/1999/xlink">
 <defs>
  <style type="text/css">
   <![CDATA[
    .fil0 {fill:#FEFEFE}
    .fil1 {fill:#D93439}
    .fil2 {fill:#363435}
   ]]>
  </style>
 </defs>
 <g id="Camada_x0020_1">
  <metadata id="CorelCorpID_0Corel-Layer"/>
  <g id="_1870429265168">
   <path class="fil0" d="M20233 4171c-29,79 -57,159 -88,234 -74,181 -140,364 -212,545 -109,272 -205,574 -331,836 -135,279 -291,504 -615,575 -351,76 -719,-87 -898,-397 -60,-103 -96,-209 -138,-319 -47,-124 -92,-249 -136,-374 -21,12 -43,23 -65,32l-69 215 -128 -180c-132,-3 -263,-60 -370,-165 -176,-172 -246,-452 -284,-722 -45,22 -96,39 -151,51 2,23 4,47 6,70 8,110 11,229 29,339 60,58 119,106 173,175 126,163 162,349 132,550 -22,150 -86,287 -189,399 -264,288 -695,324 -1062,331 -291,6 -665,-5 -937,-108 -154,-59 -281,-141 -377,-267 -124,145 -294,232 -509,195 -144,-24 -244,-91 -322,-186 -128,162 -327,268 -552,317 -412,90 -1067,83 -1372,-248 -63,-68 -110,-146 -142,-229 -216,200 -499,358 -767,441 -532,165 -1108,122 -1636,-34 -176,-52 -373,-127 -526,-229 -174,-116 -275,-250 -354,-426 -45,60 -93,117 -148,171 -138,140 -247,227 -416,330 -111,68 -228,118 -350,163 -521,191 -1126,152 -1654,7 -272,-75 -646,-217 -811,-455 -13,-18 -25,-36 -36,-54 -57,105 -122,205 -195,298 -22,28 -48,55 -70,84 -68,87 -152,165 -232,242 -20,19 -39,34 -61,51 -267,235 -590,436 -928,550 -133,45 -299,92 -436,115 -26,5 -55,7 -81,11l-47 21 -403 0 -28 -13c-64,-9 -129,-14 -193,-25 -232,-40 -485,-130 -698,-231 -172,-83 -330,-171 -483,-285 -143,-107 -284,-241 -403,-374 -23,-25 -42,-52 -64,-77 -28,-32 -53,-66 -78,-102 -86,-118 -181,-263 -241,-396 -66,-147 -127,-285 -169,-441 -23,-83 -44,-166 -58,-250 -12,-66 -15,-134 -25,-199l-14 -35 0 -458 14 -35c5,-38 6,-78 12,-116 25,-179 72,-372 137,-540 150,-389 383,-685 598,-1034l2 -4 996 -1528c27,-43 53,-85 83,-126l416 -637c57,-87 119,-142 216,-174l62 -28 89 0 18 -16 16 16 168 0 186 222 4 5c83,107 149,230 218,346 162,273 347,532 517,800l264 404 2 3c41,64 83,127 126,189 45,67 85,137 130,203 143,210 275,427 409,643 -28,-481 115,-972 415,-1351 123,-155 318,-335 485,-442 212,-134 429,-222 677,-266 380,-68 691,-15 1050,106 30,10 60,22 90,34 69,-30 126,-52 222,-59 219,-15 404,87 554,239 124,125 243,325 330,522 42,-64 88,-126 138,-182 26,-29 47,-57 76,-85 79,-78 148,-145 237,-214 269,-212 588,-341 928,-378 387,-43 665,32 1020,155 110,-45 206,-68 339,-53 203,24 371,152 499,306 120,-152 270,-239 456,-293 409,-119 1137,-190 1490,81 149,115 218,252 289,421 91,217 186,432 278,647 76,-73 170,-107 269,-112 3,-8 6,-15 9,-23 154,-387 281,-834 706,-1011 391,-162 1085,-147 1447,79 17,11 34,21 49,32 274,-157 622,-201 926,-217 231,-13 498,0 726,37 118,20 234,46 346,90 180,69 333,183 430,335 16,-28 34,-55 54,-81 226,-295 637,-366 987,-380 306,-13 719,-3 991,162 68,-54 141,-106 231,-163 528,-329 1231,-443 1817,-204 162,67 284,146 421,253 74,59 148,136 212,212 147,-170 320,-314 523,-414 473,-232 1018,-226 1508,-49 294,106 499,241 738,435 63,50 123,114 179,173 71,78 125,144 189,228 95,125 177,282 241,426 71,159 123,342 152,514 7,38 8,78 13,116l17 40 0 481 -16 35c-8,54 -11,107 -26,163 -47,173 -104,333 -173,499 -127,308 -302,577 -498,845l-7 10 -301 360 -12 11c-14,17 -27,32 -42,48l-152 157c-88,88 -185,174 -278,257 -95,86 -209,195 -313,266 -10,8 -20,17 -30,26l-9 7 -657 490 -5 4c-91,64 -174,114 -269,172 -139,84 -281,177 -426,253 -112,123 -277,110 -439,108l-227 -4 -53 -119c-104,-55 -208,-121 -305,-182l-206 -122c-75,-44 -139,-97 -210,-145 -201,-135 -391,-289 -584,-436 -95,-73 -181,-155 -275,-229l-9 -8 -270 -243 -4 -4c-57,-54 -110,-113 -167,-167 -130,-125 -274,-291 -384,-434 -90,-117 -184,-240 -261,-365 -8,-15 -17,-29 -27,-43 -121,1 -245,8 -365,1 -76,-4 -150,-9 -225,-20zm-8216 -861c2,-119 2,-240 2,-358 -1,-17 -1,-35 -1,-53 -46,65 -100,122 -161,168 3,28 7,56 12,83 3,5 7,10 11,15 43,59 79,110 112,162 8,0 16,-1 24,-1l1 -16zm7177 -838c42,-121 83,-241 127,-361 -12,-11 -25,-23 -38,-37 -30,-31 -55,-63 -78,-97 -15,26 -31,51 -48,75 -26,35 -52,63 -78,89 8,22 16,43 22,61 31,90 62,180 93,270z"/>
  </g>
  <g id="_1870429270480">
   <path class="fil1" d="M4805 3800c106,2 215,20 325,21 119,0 231,-6 345,-8l195 -12c114,-19 197,-14 300,-63 46,-21 78,-47 103,-78 64,-77 116,-170 205,-89 30,28 61,58 88,93 26,35 145,190 156,214 115,-5 201,-89 231,-176 33,-99 30,-243 98,-311 107,22 149,258 162,352 40,285 30,656 114,921 43,133 70,165 142,244 30,33 39,36 94,24 152,-34 190,-116 245,-269 48,-132 78,-273 101,-421 23,-153 38,-309 49,-465 12,-160 13,-334 30,-491l10 -183 18 -277 96 20 147 492c37,70 104,313 207,397 17,14 35,21 46,40 12,-3 40,13 60,19 25,7 53,11 82,13 56,4 114,6 173,2 118,-7 238,6 353,3l205 -1c50,-31 90,0 196,-114 41,-44 40,-73 71,-81 33,-7 67,45 78,73 45,107 13,235 100,368 13,19 57,70 80,78 78,24 198,-20 246,-55 57,-42 98,-105 129,-187 43,-115 81,-410 160,-467 181,310 114,942 262,1316 39,99 147,276 294,201 297,-154 338,-1338 352,-1757 21,4 102,69 126,88 17,14 26,15 33,43 58,211 116,467 364,514 34,0 141,-4 163,15 17,-8 239,-3 259,-3 82,1 178,-2 255,-8l152 -10c77,-15 141,-14 220,-36 212,-58 179,-167 301,-221 40,-17 59,10 83,28 26,21 51,41 65,70 32,27 67,81 94,117 20,28 73,107 94,120l44 -10c70,-40 140,-42 184,-192 28,-92 29,-235 93,-287 192,70 187,724 215,967 21,190 66,420 193,544 46,46 47,43 100,32 90,-19 143,-55 180,-119 267,-462 227,-1705 265,-1805 18,-47 67,-174 89,-210 24,34 128,417 154,495 53,162 117,348 217,439 125,115 391,70 582,75 102,2 222,13 321,1 148,-17 191,-96 215,-108 7,-21 23,-36 35,-57 10,-16 28,-36 51,-27 31,11 63,62 67,108 32,42 14,243 105,352 7,9 50,50 56,54 26,14 76,10 109,6 197,-22 267,-175 316,-367 25,-97 59,-283 118,-340 5,4 3,2 9,9 78,91 120,480 131,583 24,233 53,712 220,874 74,73 163,94 247,14 57,-53 97,-145 129,-240 22,-66 69,-278 76,-291l48 -318c-8,-50 25,-278 30,-350 8,-117 12,-238 16,-356 7,-227 9,-490 39,-711 107,353 133,978 426,1170 41,26 48,27 103,20 258,-32 254,-226 367,-376 25,-33 33,-30 81,-14 181,62 177,257 379,482 17,19 107,106 134,112 30,8 185,-13 233,-12 32,-42 60,-136 80,-193l81 -200c44,6 114,48 129,73 45,15 67,52 197,80 83,18 166,23 251,28 130,7 495,-5 554,3 23,-10 132,-11 164,-8l129 200c67,97 316,428 398,504 16,15 22,23 36,39 86,103 306,305 414,405 91,84 170,147 261,225 60,51 118,97 181,147 59,47 120,93 185,142l376 274c129,87 270,169 403,252 63,39 138,86 208,119 119,57 104,73 227,10 83,-42 532,-309 614,-369 318,-234 620,-443 917,-709l217 -193c16,-15 24,-27 40,-41 30,-28 55,-51 85,-80l387 -426c25,-30 46,-59 72,-92 46,-59 90,-122 135,-186 72,-101 190,-292 244,-406l-18 -10 -5271 85c-16,-18 6,-22 -57,-29 -110,-13 -159,-11 -265,-16l-170 0c-157,1 -318,10 -478,2 -71,-3 -144,-10 -213,-25 -55,-12 -147,-46 -162,-81 -21,-10 -41,-33 -60,-48 -23,-17 -40,-26 -71,-36 -28,-8 -56,-13 -87,-14 -45,-3 -61,-8 -84,17 -143,154 -76,387 -222,413 -17,-29 -59,-48 -147,-214l-131 -226c-17,-9 -42,-46 -56,-61 -12,-12 -53,-39 -51,-54 -21,-4 -33,-17 -50,-27 -31,-12 -54,-25 -93,-35 -28,-7 -82,-2 -100,-19 -6,17 -26,6 -87,18 -179,37 -211,350 -318,388 -171,-149 -186,-522 -239,-790 -30,-149 -72,-263 -113,-402 -46,-156 -140,-217 -303,-205 -119,162 -142,654 -149,883 -3,90 2,244 -11,327 6,58 -1,150 -2,211l-6 182c-1,2 -1,3 -1,5l-6 15c16,34 -24,391 -32,451 -15,103 -35,203 -71,297 -13,32 -32,61 -41,89l-22 -31c-30,-72 -40,-215 -55,-296 -33,-186 -149,-881 -199,-1012 -34,-89 -57,-122 -133,-165 -35,-20 -43,-19 -82,-6 -221,75 -255,300 -298,510 -22,110 -47,232 -155,247 -20,-111 -27,-228 -60,-331 -34,-104 -94,-160 -190,-199 -89,-15 -77,-5 -155,3 -16,15 -42,26 -64,42 -72,55 -125,156 -140,159l-744 2c-14,-40 -81,-173 -119,-280 -70,-203 -124,-397 -189,-601l-99 -292 -23 -43c-7,-16 -12,-27 -21,-42l-39 -55c-12,-13 -6,-1 -14,-20 -36,-19 -49,-39 -105,-54 -36,-10 -109,-25 -133,4 -134,170 -118,630 -141,830l-6 155c6,112 -8,277 -13,394 -10,240 -35,913 -162,1056 -79,-117 -124,-944 -190,-1169 -28,-95 -61,-165 -116,-223 -35,-37 -140,-121 -230,-105 -85,15 -166,86 -199,140 -49,77 -47,172 -76,255 -15,-10 -60,-80 -76,-100 -85,-107 -220,-179 -368,-131 -103,35 -145,107 -196,156 -36,35 -43,49 -100,75 -34,15 -97,35 -137,35 -23,12 -112,19 -151,22l1 -54 -2 53c-134,5 -284,8 -421,17 -56,3 -149,15 -175,-40 -61,-129 -88,-162 -168,-271 -49,-68 -52,-37 -71,-146 -11,-63 -19,-129 -28,-194 -9,-65 -23,-123 -32,-189l-38 -151c-98,-250 -50,-439 -381,-440l-28 53c-2,15 -49,156 -56,166 1,39 -24,148 -31,198 -9,73 -10,143 -21,217 2,24 4,155 -14,159 15,17 1,194 1,217 -2,76 -4,153 -5,230 -8,294 -11,782 -94,1057 -9,31 -18,57 -30,87l-43 77c-54,-70 -54,-228 -72,-327 -35,-192 -149,-877 -200,-1012 -33,-89 -58,-124 -134,-164 -35,-20 -40,-18 -81,-5 -102,34 -168,104 -209,195 -106,236 -66,541 -244,561 -29,-200 -29,-389 -180,-494 -193,-135 -351,45 -418,166l-158 0 -188 0 -406 3c-11,-32 -32,-64 -47,-98l-116 -312c-23,-72 -126,-394 -133,-442 -9,-12 -50,-137 -54,-158 -16,-24 -55,-144 -71,-183 -30,-71 -60,-118 -109,-154 -31,-23 -155,-76 -204,-41 -37,26 -62,114 -75,153l-13 24c5,11 -22,166 -29,192l-33 334c10,14 7,15 6,39 -1,16 -2,32 -3,47 -1,25 -1,55 -4,80 0,191 -23,1421 -181,1574 -132,-298 -77,-1176 -303,-1393 -53,-52 -151,-120 -230,-107 -136,22 -218,135 -246,262 -5,21 -10,45 -15,67l-22 68c-31,-67 -119,-167 -186,-206 -151,-87 -310,-31 -413,91 -35,41 -59,72 -107,91 -48,19 -298,67 -339,49 -1,0 -3,1 -4,1 -22,9 -120,14 -175,12l-577 12 -108 10c-14,-63 -74,-162 -106,-215 -39,-68 -80,-133 -121,-200 -122,-198 -245,-399 -372,-593l-380 -586c-169,-262 -342,-517 -510,-777 -83,-129 -174,-258 -252,-391 -41,-70 -80,-136 -120,-202 -37,-62 -88,-149 -131,-193 -18,17 -553,839 -581,882l-771 1184c-65,101 -131,196 -193,298 -256,424 -531,709 -613,1341 -70,535 81,1119 391,1533 18,25 32,43 50,67 52,70 111,134 172,196 22,22 43,39 63,60 43,45 148,130 201,168 371,262 1014,523 1488,435 265,-48 534,-127 741,-242 104,-57 212,-123 297,-189 26,-21 44,-32 69,-53l286 -258c468,-487 638,-1247 498,-1920 -14,-68 -37,-134 -50,-197l107 2z"/>
   <path class="fil0" d="M21113 3678c106,5 155,3 265,16 63,7 41,11 57,29l5271 -85c10,-37 54,-120 73,-163 63,-146 148,-375 164,-530 32,-294 -3,-558 -93,-816 -157,-450 -499,-789 -865,-984 -446,-238 -1032,-291 -1459,-4 -566,381 -555,1059 -627,1219 -18,-53 -32,-133 -44,-191 -89,-422 -214,-792 -599,-1038 -429,-275 -1035,-225 -1468,27 -200,117 -256,161 -403,299 -199,187 -364,450 -452,712 -84,255 -111,548 -72,830 14,100 75,265 110,358 30,80 138,309 142,321z"/>
   <path class="fil0" d="M2543 3275c-299,18 -601,141 -816,327 -19,16 -35,28 -47,41 -35,36 -55,58 -91,90 -99,90 -224,323 -269,439 -186,481 -94,1032 234,1420l43 45c30,35 56,60 92,90 149,127 220,190 434,272 364,141 813,130 1154,-58 40,-21 79,-40 113,-62l199 -152c15,-13 28,-31 42,-45l89 -92c12,-14 28,-35 39,-50 82,-112 137,-196 194,-338 226,-566 37,-1195 -366,-1561 -122,-111 -280,-211 -437,-270 -195,-73 -384,-109 -607,-96z"/>
   <path class="fil0" d="M9027 3635l158 0c67,-121 225,-301 418,-166 151,105 151,294 180,494 178,-20 138,-325 244,-561 41,-91 107,-161 209,-195 41,-13 46,-15 81,5 76,40 101,75 134,164 51,135 165,820 200,1012 18,99 18,257 72,327l43 -77c12,-30 21,-56 30,-87 83,-275 86,-763 94,-1057 1,-77 3,-154 5,-230 0,-23 14,-200 -1,-217 -103,-37 -206,-85 -311,-125 -104,-40 -205,-76 -303,-124 -534,-262 -349,-974 229,-837 114,27 208,84 286,141 51,38 128,104 171,150 18,19 30,39 50,55l28 -53c331,1 283,190 381,440 145,6 216,-108 246,-228 82,-331 -156,-855 -347,-1034 -142,-133 -173,-51 -332,-2 -71,23 -128,-1 -190,-25 -321,-123 -631,-203 -986,-122 -358,82 -653,308 -844,579 -296,420 -346,999 -123,1483 71,154 163,260 178,290z"/>
   <path class="fil0" d="M5506 3615c41,18 291,-30 339,-49 48,-19 72,-50 107,-91 103,-122 262,-178 413,-91 67,39 155,139 186,206l22 -68c5,-22 10,-46 15,-67 28,-127 110,-240 246,-262 79,-13 177,55 230,107 226,217 171,1095 303,1393 158,-153 181,-1383 181,-1574 -29,-6 -130,-59 -169,-75 -180,-78 -351,-135 -524,-208 -210,-87 -437,-259 -388,-567 42,-274 317,-395 613,-284 205,77 399,270 531,442l13 -24c13,-39 38,-127 75,-153 49,-35 173,18 204,41 49,36 79,83 109,154 16,39 55,159 71,183 158,-185 102,-498 16,-726 -66,-176 -235,-491 -377,-535 -115,-36 -196,107 -356,63 -83,-23 -214,-81 -340,-116 -532,-148 -979,-33 -1366,325 -452,418 -580,1109 -323,1691 71,162 118,194 169,285z"/>
   <path class="fil0" d="M5670 3801c42,51 166,154 225,194 326,221 619,282 849,421 85,52 158,118 203,217 49,108 41,246 -15,343 -211,365 -949,271 -1257,-200 -27,-42 -50,-91 -73,-137 -47,-92 -99,-191 -150,-277 -41,-69 -116,-221 -215,-205 -49,7 -88,63 -104,107 -89,241 60,960 219,1216 131,213 654,332 899,370 518,81 1019,-4 1370,-256 293,-210 563,-549 615,-1075 45,-449 -48,-814 -336,-1131 -24,-25 -83,-83 -112,-102 -17,157 -18,331 -30,491 -11,156 -26,312 -49,465 -23,148 -53,289 -101,421 -55,153 -93,235 -245,269 -55,12 -64,9 -94,-24 -72,-79 -99,-111 -142,-244 -84,-265 -74,-636 -114,-921 -13,-94 -55,-330 -162,-352 -68,68 -65,212 -98,311 -30,87 -116,171 -231,176 -11,-24 -130,-179 -156,-214 -27,-35 -58,-65 -88,-93 -89,-81 -141,12 -205,89 -25,31 -57,57 -103,78 -103,49 -186,44 -300,63z"/>
   <path class="fil2" d="M19181 3351c-2,15 39,42 51,54 14,15 39,52 56,61 101,-85 133,-169 188,-297 68,-160 356,-949 378,-1085 27,-171 -69,-258 -161,-322 -131,-90 -119,-240 -31,-326 165,-161 536,-171 813,-163 165,6 469,15 557,169 14,26 24,60 28,94 6,56 0,63 -25,98 -15,21 -86,138 -95,144 -47,33 -233,3 -339,152 -114,161 -289,648 -368,855 -49,126 -238,592 -274,705 31,10 48,19 71,36 19,15 39,38 60,48 47,-144 113,-288 167,-432 54,-144 112,-285 166,-430 48,-125 230,-630 323,-719 19,-18 73,-38 107,-39 -181,429 -224,886 -67,1342l115 289c12,25 35,69 42,93l170 0c-4,-12 -112,-241 -142,-321 -35,-93 -96,-258 -110,-358 -39,-282 -12,-575 72,-830 88,-262 253,-525 452,-712 147,-138 203,-182 403,-299 433,-252 1039,-302 1468,-27 385,246 510,616 599,1038 12,58 26,138 44,191 72,-160 61,-838 627,-1219 427,-287 1013,-234 1459,4 366,195 708,534 865,984 90,258 125,522 93,816 -16,155 -101,384 -164,530 -19,43 -63,126 -73,163l18 10c-54,114 -172,305 -244,406 -45,64 -89,127 -135,186 -26,33 -47,62 -72,92l-387 426c-30,29 -55,52 -85,80 -16,14 -24,26 -40,41l-217 193c-297,266 -599,475 -917,709 -82,60 -531,327 -614,369 -123,63 -108,47 -227,-10 -70,-33 -145,-80 -208,-119 -133,-83 -274,-165 -403,-252l-376 -274c-65,-49 -126,-95 -185,-142 -63,-50 -121,-96 -181,-147 -91,-78 -170,-141 -261,-225 -108,-100 -328,-302 -414,-405 -14,-16 -20,-24 -36,-39 -82,-76 -331,-407 -398,-504l-129 -200c-32,-3 -141,-2 -164,8 14,43 94,162 121,206 60,98 165,238 239,335 78,100 257,306 349,394 57,55 107,111 166,167l259 233c85,67 177,153 271,226 177,136 383,300 565,423 64,43 126,94 194,135l209 124c89,55 264,164 363,210 4,2 26,12 28,14 17,13 6,9 15,29 243,3 156,6 188,-26 8,-8 25,-13 36,-18 123,-60 334,-194 453,-266 137,-83 113,-64 249,-160l644 -479c19,-17 38,-34 58,-48 82,-56 459,-399 542,-482l150 -154c19,-20 27,-35 50,-56l279 -334c179,-245 340,-488 457,-772 68,-164 112,-284 158,-456 12,-44 18,-156 30,-182l0 -336c-15,-37 -17,-119 -25,-165 -24,-142 -69,-302 -126,-430 -52,-115 -126,-259 -200,-355 -82,-109 -78,-106 -167,-202 -37,-40 -100,-106 -141,-139 -201,-163 -366,-280 -636,-377 -409,-148 -853,-152 -1232,34 -175,86 -311,211 -413,330l-80 107c-25,39 -47,72 -70,112 -46,85 -103,231 -115,250 -28,-62 -51,-124 -82,-187 -42,-84 -99,-175 -156,-247 -51,-64 -129,-151 -195,-203 -110,-87 -198,-147 -335,-203 -488,-199 -1075,-86 -1495,177 -212,131 -267,190 -441,360l-9 -14c-2,-3 -4,-8 -5,-12 -5,-12 -7,-17 -13,-28 -26,-50 -67,-95 -113,-127 -188,-134 -589,-135 -814,-126 -362,15 -799,99 -796,477 1,103 42,175 94,229 124,130 235,81 114,406 -86,229 -160,469 -249,704 -31,81 -99,258 -144,330 -26,43 -34,60 -79,82z"/>
   <path class="fil0" d="M9185 3811c111,122 274,234 457,327 174,89 368,155 542,242 153,76 340,227 295,481 -37,214 -246,322 -452,336 -251,16 -442,-70 -607,-176 -194,-125 -249,-264 -346,-444 -46,-86 -91,-171 -138,-253 -34,-58 -119,-207 -218,-160 -156,72 -101,479 -72,660 34,211 95,431 181,603 48,97 99,146 195,197 85,46 181,86 280,118 620,195 1348,228 1884,-193 316,-248 508,-593 554,-1018 31,-286 5,-439 -64,-700 -248,-47 -306,-303 -364,-514 -7,-28 -16,-29 -33,-43 -24,-19 -105,-84 -126,-88 -14,419 -55,1603 -352,1757 -147,75 -255,-102 -294,-201 -148,-374 -81,-1006 -262,-1316 -79,57 -117,352 -160,467 -31,82 -72,145 -129,187 -48,35 -168,79 -246,55 -23,-8 -67,-59 -80,-78 -87,-133 -55,-261 -100,-368 -11,-28 -45,-80 -78,-73 -31,8 -30,37 -71,81 -106,114 -146,83 -196,114z"/>
   <path class="fil0" d="M13406 3893l96 281c135,389 354,1046 514,1388 56,118 84,196 163,38 41,-84 77,-180 108,-272 129,-373 260,-754 399,-1123 60,-161 151,-431 308,-453 125,-18 176,83 190,190 30,233 14,887 -24,1089 -25,129 -52,186 -119,261 -16,17 -34,31 -50,50 -15,17 -27,30 -43,50 -27,32 -59,63 -65,122 -26,240 227,297 434,324 228,31 504,29 736,15 208,-14 465,-79 522,-238 73,-207 -75,-264 -175,-367 -23,-23 -61,-68 -78,-108 -82,-192 -109,-1149 -108,-1415 -24,12 -67,91 -215,108 -99,12 -219,1 -321,-1 -191,-5 -457,40 -582,-75 -100,-91 -164,-277 -217,-439 -26,-78 -130,-461 -154,-495 -22,36 -71,163 -89,210 -38,100 2,1343 -265,1805 -37,64 -90,100 -180,119 -53,11 -54,14 -100,-32 -127,-124 -172,-354 -193,-544 -28,-243 -23,-897 -215,-967 -64,52 -65,195 -93,287 -44,150 -114,152 -184,192z"/>
   <path class="fil0" d="M12510 3647c40,0 103,-20 137,-35 57,-26 64,-40 100,-75 51,-49 93,-121 196,-156 148,-48 283,24 368,131 16,20 61,90 76,100 29,-83 27,-178 76,-255 33,-54 114,-125 199,-140 90,-16 195,68 230,105 55,58 88,128 116,223 66,225 111,1052 190,1169 127,-143 152,-816 162,-1056 5,-117 19,-282 13,-394 -125,-16 -164,-122 -211,-229l-399 -929c-89,-204 -173,-417 -266,-618 -55,-119 -99,-161 -248,-191 -122,-24 -289,-31 -417,-22 -128,9 -259,30 -381,58 -140,33 -228,62 -295,150 -76,100 -79,225 -4,326 55,74 168,106 244,201 179,224 122,1283 114,1637z"/>
   <path class="fil0" d="M14855 2489l99 292c65,204 119,398 189,601 38,107 105,240 119,280l744 -2c15,-3 68,-104 140,-159 22,-16 48,-27 64,-42 11,-93 3,-232 5,-332 5,-249 23,-743 77,-955 73,-287 214,-302 265,-419 36,-86 19,-213 -25,-281 -42,-64 -112,-110 -204,-141 -176,-59 -430,-67 -626,-46 -236,24 -349,85 -441,243 -87,150 -140,303 -209,475l-197 486z"/>
   <path class="fil0" d="M17931 4085c53,164 118,333 177,497 60,168 118,334 179,500 50,136 169,500 230,612 61,113 183,195 332,178 106,-12 162,-73 202,-133 114,-169 232,-511 309,-709 63,-165 125,-324 190,-489 30,-78 177,-444 189,-491 -48,-1 -203,20 -233,12 -27,-6 -117,-93 -134,-112 -202,-225 -198,-420 -379,-482 -48,-16 -56,-19 -81,14 -113,150 -109,344 -367,376 -55,7 -62,6 -103,-20 -293,-192 -319,-817 -426,-1170 -30,221 -32,484 -39,711 -4,118 -8,239 -16,356 -5,72 -38,300 -30,350z"/>
   <path class="fil0" d="M17718 3489c13,-83 8,-237 11,-327 7,-229 30,-721 149,-883 163,-12 257,49 303,205 41,139 83,253 113,402 53,268 68,641 239,790 107,-38 139,-351 318,-388 61,-12 81,-1 87,-18 -20,-74 -220,-635 -250,-719 -40,-113 -92,-242 -121,-359 -79,-323 135,-311 207,-485 27,-65 21,-140 -11,-196 -150,-267 -935,-252 -1202,-229 -284,24 -574,96 -695,272 -63,93 -88,303 24,350 104,43 203,44 297,189 114,175 317,805 403,1041l128 355z"/>
   <path class="fil2" d="M16214 3725c-1,266 26,1223 108,1415 17,40 55,85 78,108 100,103 248,160 175,367 -57,159 -314,224 -522,238 -232,14 -508,16 -736,-15 -207,-27 -460,-84 -434,-324 6,-59 38,-90 65,-122 16,-20 28,-33 43,-50 16,-19 34,-33 50,-50 67,-75 94,-132 119,-261 38,-202 54,-856 24,-1089 -14,-107 -65,-208 -190,-190 -157,22 -248,292 -308,453 -139,369 -270,750 -399,1123 -31,92 -67,188 -108,272 -79,158 -107,80 -163,-38 -160,-342 -379,-999 -514,-1388l-96 -281 -44 10c-21,-13 -74,-92 -94,-120 -27,-36 -62,-90 -94,-117 -114,17 -143,130 -149,251 -17,306 -35,893 -1,1163 18,141 57,199 143,261 114,83 177,87 168,232 -14,213 -299,265 -517,279 -242,17 -709,25 -735,-258 -19,-204 148,-157 272,-320 98,-129 107,-491 117,-684 15,-253 28,-512 33,-765l-152 10c1,129 -11,271 -15,404 -6,195 -27,603 -56,786 -28,173 -46,168 -167,248 -88,59 -170,103 -182,241 -12,135 26,240 96,315 198,215 742,206 1035,142 230,-50 424,-172 423,-422 -1,-140 -48,-206 -146,-271 -135,-91 -154,-90 -171,-250 -21,-219 -16,-1000 22,-1206 18,11 28,30 40,55 26,51 56,141 74,195 126,371 438,1283 589,1588 37,75 77,160 178,177 195,34 274,-237 331,-386 67,-173 126,-356 188,-532 62,-179 123,-360 189,-536 37,-98 152,-445 234,-481 49,57 52,1049 -42,1228 -14,26 -126,150 -153,180 -109,122 -117,296 -44,422 54,95 132,150 250,195 211,80 554,90 804,85 332,-6 849,-33 908,-428 36,-247 -99,-317 -219,-437 -50,-49 -62,-53 -79,-143 -23,-125 -30,-277 -39,-405 -22,-275 -35,-569 -34,-850 -4,-46 -36,-97 -67,-108 -23,-9 -41,11 -51,27 -12,21 -28,36 -35,57z"/>
   <path class="fil0" d="M19288 3466l131 226c88,166 130,185 147,214 146,-26 79,-259 222,-413 23,-25 39,-20 84,-17 31,1 59,6 87,14 36,-113 225,-579 274,-705 79,-207 254,-694 368,-855 106,-149 292,-119 339,-152 9,-6 80,-123 95,-144 25,-35 31,-42 25,-98 -4,-34 -14,-68 -28,-94 -88,-154 -392,-163 -557,-169 -277,-8 -648,2 -813,163 -88,86 -100,236 31,326 92,64 188,151 161,322 -22,136 -310,925 -378,1085 -55,128 -87,212 -188,297z"/>
   <path class="fil2" d="M14758 2329c8,19 2,7 14,20l39 55c9,15 14,26 21,42l23 43 197 -486c69,-172 122,-325 209,-475 92,-158 205,-219 441,-243 196,-21 450,-13 626,46 92,31 162,77 204,141 44,68 61,195 25,281 -51,117 -192,132 -265,419 -54,212 -72,706 -77,955 -2,100 6,239 -5,332 78,-8 66,-18 155,-3 -15,-244 15,-1114 97,-1323 46,-115 88,-128 152,-205 10,-12 18,-18 28,-31l35 -28 12 26c33,80 81,132 173,160 106,33 156,41 223,163 85,154 146,370 214,552l302 844c32,92 76,196 102,288l6 -15c0,-2 0,-3 1,-5l6 -182c1,-61 8,-153 2,-211l-128 -355c-86,-236 -289,-866 -403,-1041 -94,-145 -193,-146 -297,-189 -112,-47 -87,-257 -24,-350 121,-176 411,-248 695,-272 267,-23 1052,-38 1202,229 32,56 38,131 11,196 -72,174 -286,162 -207,485 29,117 81,246 121,359 30,84 230,645 250,719 18,17 72,12 100,19 39,10 62,23 93,35 -83,-172 -121,-318 -188,-501 -61,-169 -119,-337 -177,-508 -19,-55 -80,-213 -65,-272 24,-95 259,-177 241,-449 -13,-191 -154,-306 -315,-368 -88,-35 -179,-55 -275,-70 -188,-31 -450,-45 -650,-34 -287,16 -709,59 -916,287 -24,27 -46,70 -72,99 -29,-47 -37,-156 -193,-253 -275,-172 -856,-164 -1124,-53 -286,119 -396,520 -513,815 -43,107 -83,203 -126,312z"/>
   <path class="fil2" d="M375 4311l0 317c10,24 25,195 33,243 13,75 32,145 52,218 39,146 93,263 150,389 46,101 140,245 204,333 21,29 37,53 58,77 24,27 39,49 61,74 99,110 234,238 352,326 134,101 263,172 424,249 176,84 407,168 606,202 32,6 226,28 236,33l254 0c36,-16 97,-19 141,-26 93,-16 300,-74 383,-103 300,-100 585,-283 810,-482 15,-14 31,-23 45,-37 62,-60 149,-141 199,-205 23,-30 47,-55 72,-86 179,-228 322,-545 398,-896 38,-177 55,-399 45,-587 -15,-261 -39,-316 -93,-550l-107 -2c13,63 36,129 50,197 140,673 -30,1433 -498,1920l-286 258c-25,21 -43,32 -69,53 -85,66 -193,132 -297,189 -207,115 -476,194 -741,242 -474,88 -1117,-173 -1488,-435 -53,-38 -158,-123 -201,-168 -20,-21 -41,-38 -63,-60 -61,-62 -120,-126 -172,-196 -18,-24 -32,-42 -50,-67 -310,-414 -461,-998 -391,-1533 82,-632 357,-917 613,-1341 62,-102 128,-197 193,-298l771 -1184c28,-43 563,-865 581,-882 43,44 94,131 131,193 40,66 79,132 120,202 78,133 169,262 252,391 168,260 341,515 510,777l380 586c127,194 250,395 372,593 41,67 82,132 121,200 32,53 92,152 106,215l108 -10c-16,-39 -29,-80 -48,-119 -44,-89 -131,-231 -183,-314 -158,-252 -351,-574 -516,-818 -46,-66 -86,-136 -131,-203 -45,-65 -89,-131 -133,-200l-264 -403c-172,-272 -358,-533 -523,-811 -54,-90 -131,-229 -193,-310l-76 -90 -49 0c-41,19 -32,1 -59,42l-421 644c-26,35 -51,76 -76,116l-995 1527c-202,327 -429,614 -569,975 -53,138 -96,314 -117,462 -6,41 -10,144 -22,173z"/>
   <path class="fil2" d="M7788 3286c29,19 88,77 112,102 288,317 381,682 336,1131 -52,526 -322,865 -615,1075 -351,252 -852,337 -1370,256 -245,-38 -768,-157 -899,-370 -159,-256 -308,-975 -219,-1216 16,-44 55,-100 104,-107 99,-16 174,136 215,205 51,86 103,185 150,277 23,46 46,95 73,137 308,471 1046,565 1257,200 56,-97 64,-235 15,-343 -45,-99 -118,-165 -203,-217 -230,-139 -523,-200 -849,-421 -59,-40 -183,-143 -225,-194l-195 12c33,43 110,126 154,161 19,16 35,33 56,50 260,214 487,305 809,437 52,21 98,42 143,68 55,31 79,52 119,91 72,71 107,207 29,302 -136,167 -429,147 -638,56 -99,-44 -194,-110 -253,-169 -173,-173 -300,-620 -491,-755 -103,-72 -214,-66 -309,8 -234,182 -116,786 -53,1021 53,202 99,359 214,523 99,144 414,260 614,316 454,125 990,166 1438,2 105,-39 198,-79 288,-134 160,-97 224,-151 349,-276 107,-108 184,-224 261,-359 160,-282 219,-700 182,-1037 -19,-177 -37,-193 -75,-343 -11,-19 -29,-26 -46,-40 -103,-84 -170,-327 -207,-397l-61 -66c-30,-33 -162,-150 -200,-169l-10 183z"/>
   <path class="fil0" d="M16365 3456c96,39 156,95 190,199 33,103 40,220 60,331 108,-15 133,-137 155,-247 43,-210 77,-435 298,-510 39,-13 47,-14 82,6 76,43 99,76 133,165 50,131 166,826 199,1012 15,81 25,224 55,296l22 31c9,-28 28,-57 41,-89 36,-94 56,-194 71,-297 8,-60 48,-417 32,-451 -26,-92 -70,-196 -102,-288l-302 -844c-68,-182 -129,-398 -214,-552 -67,-122 -117,-130 -223,-163 -92,-28 -140,-80 -173,-160l-12 -26 -35 28c-10,13 -18,19 -28,31 -64,77 -106,90 -152,205 -82,209 -112,1079 -97,1323z"/>
   <path class="fil2" d="M11839 3846c-22,-19 -129,-15 -163,-15 69,261 95,414 64,700 -46,425 -238,770 -554,1018 -536,421 -1264,388 -1884,193 -99,-32 -195,-72 -280,-118 -96,-51 -147,-100 -195,-197 -86,-172 -147,-392 -181,-603 -29,-181 -84,-588 72,-660 99,-47 184,102 218,160 47,82 92,167 138,253 97,180 152,319 346,444 165,106 356,192 607,176 206,-14 415,-122 452,-336 45,-254 -142,-405 -295,-481 -174,-87 -368,-153 -542,-242 -183,-93 -346,-205 -457,-327l-205 1c8,19 82,92 100,111 269,269 551,385 910,534 133,56 305,133 338,282 61,284 -332,380 -657,248 -130,-54 -279,-162 -352,-275 -118,-185 -236,-509 -389,-639 -198,-168 -419,-13 -458,231 -46,294 54,770 159,1056 64,172 124,271 263,363 117,78 291,143 430,184 454,135 962,181 1431,36 276,-86 578,-272 750,-490l91 -114c151,-201 254,-473 289,-741 38,-300 18,-469 -46,-752z"/>
   <path class="fil0" d="M12505 3825c-5,253 -18,512 -33,765 -10,193 -19,555 -117,684 -124,163 -291,116 -272,320 26,283 493,275 735,258 218,-14 503,-66 517,-279 9,-145 -54,-149 -168,-232 -86,-62 -125,-120 -143,-261 -34,-270 -16,-857 1,-1163 6,-121 35,-234 149,-251 -14,-29 -39,-49 -65,-70 -24,-18 -43,-45 -83,-28 -122,54 -89,163 -301,221 -79,22 -143,21 -220,36z"/>
   <path class="fil2" d="M2397 4443l-546 3c-13,42 -4,401 -4,475l548 0 2 550 479 0 3 -550 541 -1 2 -474 -543 0 -1 -550 -478 0c-9,39 -2,466 -3,547z"/>
   <path class="fil1" d="M2413 4463c-87,18 -420,-7 -544,6l-1 429 550 2 1 548 438 2 0 -548 544 -2 0 -432 -544 0 0 -551 -438 0c-1,100 12,486 -6,546z"/>
   <path class="fil2" d="M8839 3635l188 0c-15,-30 -107,-136 -178,-290 -223,-484 -173,-1063 123,-1483 191,-271 486,-497 844,-579 355,-81 665,-1 986,122 62,24 119,48 190,25 159,-49 190,-131 332,2 191,179 429,703 347,1034 -30,120 -101,234 -246,228l38 151c159,1 254,-116 309,-220 66,-126 77,-294 58,-447 -33,-274 -172,-559 -304,-742 -55,-76 -170,-209 -302,-225 -88,-10 -146,20 -210,48 -104,46 -87,29 -188,-7 -294,-103 -535,-182 -881,-143 -305,33 -556,153 -749,304 -96,76 -126,109 -208,189 -24,24 -37,44 -60,69 -77,86 -146,197 -204,317 -216,441 -228,1038 20,1486 17,30 29,53 47,82 15,25 38,55 48,79z"/>
   <path class="fil2" d="M5327 3628c55,2 153,-3 175,-12 1,0 3,-1 4,-1 -51,-91 -98,-123 -169,-285 -257,-582 -129,-1273 323,-1691 387,-358 834,-473 1366,-325 126,35 257,93 340,116 160,44 241,-99 356,-63 142,44 311,359 377,535 86,228 142,541 -16,726 4,21 45,146 54,158 82,-55 159,-187 184,-323 28,-149 9,-309 -27,-451 -50,-197 -203,-522 -349,-670 -279,-283 -433,-26 -542,-60 -60,-18 -123,-45 -185,-66 -289,-98 -546,-153 -874,-94 -208,38 -381,109 -550,217 -128,81 -300,240 -398,363 -340,429 -440,1058 -238,1591 59,159 160,310 169,335z"/>
   <path class="fil2" d="M12360 3615l-1 54c39,-3 128,-10 151,-22 8,-354 65,-1413 -114,-1637 -76,-95 -189,-127 -244,-201 -75,-101 -72,-226 4,-326 67,-88 155,-117 295,-150 122,-28 253,-49 381,-58 128,-9 295,-2 417,22 149,30 193,72 248,191 93,201 177,414 266,618l399 929c47,107 86,213 211,229l6 -155c-37,-12 -138,-271 -154,-307 -45,-108 -94,-216 -138,-324 -134,-322 -278,-643 -414,-966 -52,-124 -91,-211 -179,-278 -233,-179 -863,-113 -1176,-22 -135,39 -215,93 -280,176 -154,198 -118,474 114,620 129,82 152,97 184,278 50,284 39,1047 24,1329z"/>
   <path class="fil2" d="M19739 4050c-12,47 -159,413 -189,491 -65,165 -127,324 -190,489 -77,198 -195,540 -309,709 -40,60 -96,121 -202,133 -149,17 -271,-65 -332,-178 -61,-112 -180,-476 -230,-612 -61,-166 -119,-332 -179,-500 -59,-164 -124,-333 -177,-497l-48 318c36,82 70,195 101,280 96,270 200,575 298,836 35,92 66,186 113,268 101,173 309,273 516,228 203,-44 290,-213 372,-383 75,-155 247,-627 321,-814 73,-181 138,-364 213,-547 39,-94 178,-471 212,-541 -15,-25 -85,-67 -129,-73l-81 200c-20,57 -48,151 -80,193z"/>
   <path class="fil0" d="M20090 3574c15,35 107,69 162,81 69,15 142,22 213,25 160,8 321,-1 478,-2 -7,-24 -30,-68 -42,-93l-115 -289c-157,-456 -114,-913 67,-1342 -34,1 -88,21 -107,39 -93,89 -275,594 -323,719 -54,145 -112,286 -166,430 -54,144 -120,288 -167,432z"/>
   <path class="fil0" d="M7549 2953l33 -334c-37,-33 -66,-74 -99,-113l-148 -161c-124,-124 -270,-248 -467,-249 -128,-1 -217,61 -245,166 -71,257 159,383 340,454 98,39 196,77 296,114 48,19 96,40 145,60 50,20 98,46 145,63z"/>
   <path class="fil0" d="M10908 2888c11,-74 12,-144 21,-217 7,-50 32,-159 31,-198 -8,-4 0,2 -11,-10l-29 -36c-107,-110 -176,-199 -336,-278 -187,-91 -423,-75 -462,137 -40,221 133,339 283,405l503 197z"/>
   <path class="fil2" d="M7548 3119c3,-25 3,-55 4,-80 1,-15 2,-31 3,-47 1,-24 4,-25 -6,-39 -47,-17 -95,-43 -145,-63 -49,-20 -97,-41 -145,-60 -100,-37 -198,-75 -296,-114 -181,-71 -411,-197 -340,-454 28,-105 117,-167 245,-166 197,1 343,125 467,249l148 161c33,39 62,80 99,113 7,-26 34,-181 29,-192 -132,-172 -326,-365 -531,-442 -296,-111 -571,10 -613,284 -49,308 178,480 388,567 173,73 344,130 524,208 39,16 140,69 169,75z"/>
   <path class="fil2" d="M10894 3047c18,-4 16,-135 14,-159l-503 -197c-150,-66 -323,-184 -283,-405 39,-212 275,-228 462,-137 160,79 229,168 336,278l29 36c11,12 3,6 11,10 7,-10 54,-151 56,-166 -20,-16 -32,-36 -50,-55 -43,-46 -120,-112 -171,-150 -78,-57 -172,-114 -286,-141 -578,-137 -763,575 -229,837 98,48 199,84 303,124 105,40 208,88 311,125z"/>
   <path class="fil0" d="M7798 3103c38,19 170,136 200,169l61 66 -147 -492 -96 -20 -18 277z"/>
  </g>
 </g>
</svg>
